<?xml version="1.0" standalone="no"?>
<!DOCTYPE svg PUBLIC "-//W3C//DTD SVG 20010904//EN"
 "http://www.w3.org/TR/2001/REC-SVG-20010904/DTD/svg10.dtd">
<svg version="1.0" xmlns="http://www.w3.org/2000/svg"
 width="1024.000000pt" height="1024.000000pt" viewBox="0 0 1024.000000 1024.000000"
 preserveAspectRatio="xMidYMid meet">
<metadata>
Created by potrace 1.16, written by Peter Selinger 2001-2019
</metadata>
<g transform="translate(0.000000,1024.000000) scale(0.100000,-0.100000)"
fill="#000000" stroke="none">
<path d="M4970 9192 c-75 -6 -188 -35 -255 -67 -218 -104 -348 -278 -399 -536
-5 -23 -12 -27 -52 -32 -54 -6 -64 -17 -64 -72 0 -52 13 -65 70 -65 l45 0 13
-67 c16 -85 75 -207 140 -294 213 -281 614 -352 917 -164 167 103 287 278 318
462 l11 63 47 0 c54 0 66 11 74 65 8 54 -4 67 -64 73 -49 4 -51 5 -56 41 -54
334 -320 575 -655 593 -30 2 -71 2 -90 0z m173 -158 c253 -57 431 -276 429
-530 0 -197 -89 -367 -247 -472 -100 -67 -184 -94 -300 -95 -159 -1 -284 52
-400 168 -269 269 -196 715 144 884 49 24 97 40 166 55 47 9 141 5 208 -10z"/>
<path d="M4755 8781 c-87 -40 -134 -115 -135 -214 0 -93 45 -155 192 -266 69
-52 118 -105 159 -171 39 -63 59 -64 94 -4 39 66 84 114 201 210 125 103 160
160 151 248 -20 194 -217 279 -354 153 l-44 -40 -37 36 c-65 64 -153 82 -227
48z"/>
<path d="M3773 8640 c-75 -45 -84 -148 -19 -207 30 -27 44 -33 82 -33 77 0
144 60 144 129 0 101 -119 165 -207 111z"/>
<path d="M6075 8646 c-86 -37 -97 -163 -21 -221 84 -64 216 -2 216 102 0 99
-100 160 -195 119z"/>
<path d="M2955 8433 c-73 -74 -112 -224 -101 -397 4 -61 14 -144 22 -185 8
-40 13 -76 10 -79 -11 -10 -191 -140 -193 -139 -1 1 8 29 20 62 30 87 30 253
0 351 -75 238 -200 212 -255 -53 -24 -118 -19 -213 18 -360 13 -54 27 -128 31
-164 l6 -65 -63 -60 c-35 -32 -69 -65 -76 -71 -20 -20 -23 -16 -13 25 13 58
10 204 -6 284 -19 90 -75 208 -116 242 -38 33 -90 35 -120 5 -63 -63 -104
-236 -96 -399 6 -123 22 -185 82 -335 25 -61 45 -120 45 -132 0 -29 -119 -269
-124 -252 -2 8 -7 45 -11 84 -12 135 -76 281 -168 381 -82 90 -172 120 -216
73 -43 -46 -57 -253 -26 -383 30 -134 63 -202 176 -372 108 -164 104 -146 73
-271 -27 -109 -44 -148 -44 -102 0 36 -60 167 -113 245 -115 172 -302 299
-397 269 -75 -24 -61 -255 26 -414 53 -97 112 -167 237 -288 63 -59 138 -138
166 -175 l52 -66 -13 -118 -13 -118 -32 65 c-103 208 -371 397 -569 402 -79 2
-104 -17 -104 -78 0 -55 19 -107 69 -190 92 -152 171 -220 396 -344 74 -40
167 -102 215 -142 78 -65 138 -105 144 -97 2 2 22 29 45 61 59 81 162 199 168
193 12 -12 -173 -291 -201 -302 -6 -2 -29 5 -51 16 l-40 20 -3 -65 c-2 -36 -5
-65 -7 -65 -2 0 -32 30 -67 66 -66 69 -189 156 -271 194 -124 55 -316 78 -392
46 -30 -13 -35 -20 -35 -48 0 -59 49 -137 150 -238 109 -109 188 -158 355
-220 223 -83 342 -131 359 -143 15 -11 89 -236 81 -245 -2 -2 -33 21 -70 51
-150 124 -377 197 -568 184 -190 -13 -230 -59 -152 -173 69 -100 214 -204 350
-249 58 -20 116 -29 267 -40 106 -8 211 -19 232 -24 31 -8 57 -29 125 -101
l86 -91 34 13 c33 13 34 12 73 -32 49 -55 93 -119 86 -126 -3 -2 -18 2 -34 11
-68 36 -346 148 -424 172 -117 34 -261 42 -366 18 -164 -36 -328 -145 -309
-205 3 -10 22 -33 41 -49 85 -75 231 -121 381 -121 119 0 201 17 383 80 175
61 215 63 285 19 27 -17 76 -57 109 -88 66 -62 118 -101 135 -101 21 0 11 34
-41 137 -49 97 -52 109 -56 192 -3 55 2 125 12 184 38 224 3 491 -77 591 -30
37 -59 31 -115 -24 -118 -114 -164 -345 -106 -535 7 -20 7 -20 -16 0 -45 40
-117 175 -156 291 l-39 116 30 22 c108 77 224 216 276 333 62 136 46 203 -50
203 -131 0 -288 -150 -315 -302 -4 -21 -11 -38 -16 -38 -26 0 -60 93 -75 200
-9 63 -4 68 140 180 213 166 325 325 325 461 0 48 -1 51 -36 65 -30 12 -46 13
-91 4 -134 -28 -265 -153 -337 -324 -17 -40 -34 -66 -44 -66 -14 0 -177 160
-392 384 -79 83 -88 96 -55 76 118 -69 196 -133 307 -252 75 -80 125 -125 131
-119 5 5 11 58 14 118 2 59 6 118 9 130 5 27 86 86 244 179 164 96 278 211
345 347 40 79 50 111 53 162 4 59 3 64 -22 80 -21 14 -41 17 -96 13 -182 -13
-371 -179 -480 -423 -40 -88 -56 -108 -81 -95 -36 20 -160 231 -244 415 l-45
100 53 -57 c49 -54 100 -130 197 -297 l42 -74 21 33 c11 18 42 102 68 186 26
85 57 170 69 189 12 19 49 56 83 83 60 48 64 49 142 54 178 12 426 134 465
229 12 27 11 33 -9 52 -18 18 -35 23 -104 25 -177 8 -295 -43 -441 -190 -87
-87 -98 -96 -93 -69 7 36 117 269 146 309 12 17 52 44 96 65 69 34 84 37 162
37 163 0 307 54 406 151 61 62 69 85 36 115 -29 26 -149 31 -248 10 -127 -27
-225 -81 -333 -185 -26 -24 -51 -42 -54 -38 -8 8 54 130 97 193 15 22 52 59
81 82 30 22 64 53 78 67 23 24 27 25 160 25 234 0 383 28 489 92 90 55 93 85
14 120 -104 46 -339 32 -476 -29 -31 -14 -60 -23 -64 -20 -11 12 31 49 147
128 63 43 150 103 193 132 l78 54 58 -57 c117 -117 308 -181 454 -150 33 7 61
18 64 27 10 25 -19 63 -79 103 -67 45 -150 74 -267 95 -46 8 -86 17 -88 19
-12 12 201 68 287 76 133 13 243 50 309 106 65 54 31 84 -96 84 -122 0 -283
-53 -298 -99 -4 -13 -19 -20 -55 -25 -27 -4 -68 -13 -91 -21 -23 -9 -44 -13
-46 -11 -13 12 98 117 152 144 122 60 204 167 221 285 14 104 -33 139 -123 92
-101 -52 -144 -116 -192 -280 -13 -45 -37 -94 -68 -137 -26 -37 -60 -85 -76
-107 -18 -26 -38 -42 -58 -46 -17 -4 -32 -5 -35 -3 -2 3 14 45 36 94 22 49 47
122 56 163 29 129 5 276 -54 321 -34 27 -54 25 -87 -7z m-1130 -1586 c63 -136
95 -258 94 -362 l0 -60 -25 60 c-33 81 -59 168 -89 307 -28 130 -27 128 -19
128 3 0 21 -33 39 -73z m400 -829 c-14 -18 -62 -79 -105 -135 -94 -119 -209
-227 -226 -210 -8 8 138 196 198 255 44 42 142 119 156 121 2 1 -8 -14 -23
-31z m-671 -1067 c35 -16 85 -43 110 -60 57 -40 163 -138 178 -164 29 -54 -92
18 -322 191 -69 52 -127 97 -130 99 -8 7 91 -33 164 -66z m136 -612 c141 -35
349 -134 327 -156 -15 -14 -179 41 -334 114 -89 41 -163 77 -163 79 0 5 6 3
170 -37z m748 -66 c14 -92 16 -382 3 -367 -17 18 -41 105 -47 175 -7 70 13
269 26 269 4 0 12 -35 18 -77z"/>
<path d="M6461 8444 c-21 -15 -23 -23 -19 -78 8 -124 97 -246 222 -306 44 -20
77 -46 105 -79 23 -27 41 -51 41 -53 0 -3 -28 1 -61 8 -39 8 -71 22 -88 38
-56 53 -200 96 -321 95 -97 -1 -124 -9 -128 -37 -8 -55 149 -133 296 -147 82
-8 255 -41 300 -57 37 -14 41 -26 10 -32 -205 -36 -300 -72 -377 -142 -52 -46
-52 -74 -1 -91 82 -28 221 -5 348 58 85 42 162 106 162 135 0 24 10 18 201
-116 177 -124 238 -174 226 -186 -3 -4 -35 5 -69 20 -129 54 -289 70 -403 40
-110 -28 -131 -60 -73 -109 88 -74 217 -105 474 -112 l191 -6 34 -31 c19 -18
60 -51 91 -74 51 -37 63 -54 101 -135 71 -148 70 -152 -19 -67 -91 86 -188
139 -301 164 -120 27 -253 18 -283 -19 -18 -22 3 -66 54 -113 100 -92 211
-133 377 -137 115 -3 116 -3 193 -47 62 -34 83 -52 103 -86 38 -70 104 -230
110 -270 l6 -37 -40 50 c-85 107 -205 190 -318 219 -81 22 -228 21 -260 0 -57
-37 -7 -117 118 -192 103 -62 277 -109 357 -96 32 5 41 1 103 -54 37 -33 76
-71 87 -85 24 -30 52 -107 81 -220 11 -43 31 -104 45 -135 l25 -57 20 25 c11
14 38 61 61 105 63 123 183 303 195 292 14 -15 -122 -300 -203 -425 -73 -112
-82 -110 -149 24 -127 255 -295 400 -477 412 -65 4 -76 2 -102 -19 -26 -20
-28 -26 -23 -70 7 -58 43 -149 88 -226 75 -126 169 -203 462 -382 l105 -64 7
-126 c4 -69 9 -130 12 -135 3 -4 62 48 132 117 120 118 229 209 303 251 30 17
29 14 -18 -35 -28 -30 -96 -106 -152 -171 -91 -103 -267 -267 -276 -257 -2 2
-20 38 -40 79 -60 121 -144 215 -240 270 -76 44 -142 56 -190 36 l-38 -16 4
-62 c8 -138 111 -286 292 -422 61 -47 125 -99 143 -118 30 -31 31 -35 23 -83
-11 -61 -12 -135 -3 -135 3 0 56 38 117 84 61 46 134 95 161 109 69 35 228 98
232 93 3 -2 -26 -25 -64 -50 -37 -25 -115 -79 -173 -121 -58 -43 -130 -92
-161 -110 -52 -30 -168 -79 -174 -73 -2 2 -13 30 -24 63 -54 154 -190 275
-308 275 -67 0 -93 -20 -93 -71 0 -106 98 -269 245 -407 l95 -89 -31 -89 c-50
-142 -150 -324 -178 -324 -4 0 -2 24 6 53 19 65 21 228 4 286 -22 77 -63 152
-114 207 -61 67 -86 70 -121 16 -82 -125 -106 -351 -65 -606 28 -168 20 -228
-45 -363 -76 -156 -59 -162 84 -29 36 34 90 78 120 98 54 36 56 37 115 27 33
-6 128 -32 210 -59 218 -72 343 -86 486 -56 122 26 279 121 279 168 0 47 -128
137 -255 180 -60 20 -89 23 -200 22 -149 0 -200 -11 -370 -81 -60 -24 -154
-63 -208 -85 -54 -22 -101 -37 -104 -34 -3 3 21 38 54 78 l60 73 47 -3 c46 -4
49 -2 97 50 27 29 59 67 71 84 28 41 70 51 263 65 190 13 286 36 404 96 142
72 291 221 291 289 0 72 -185 106 -374 69 -146 -27 -329 -120 -416 -210 -19
-19 -37 -35 -40 -35 -4 0 10 57 30 128 l36 127 85 42 c46 23 140 61 209 84
241 81 345 141 464 270 70 75 130 182 124 219 -1 13 -16 32 -31 44 -24 18 -42
21 -110 20 -105 -2 -190 -24 -302 -78 -106 -52 -206 -125 -267 -196 -24 -27
-45 -50 -48 -50 -3 0 -7 28 -8 62 -2 34 -4 64 -6 66 -2 2 -23 -6 -45 -18 l-41
-21 -26 28 c-33 35 -110 150 -154 228 l-33 60 47 -45 c26 -25 77 -84 113 -133
l66 -87 26 17 c14 9 68 51 121 93 53 42 136 98 186 124 229 124 357 246 440
419 41 87 46 153 13 183 -49 44 -213 12 -345 -67 -114 -68 -253 -227 -310
-354 l-17 -40 -15 121 -14 122 31 46 c18 26 87 103 154 172 248 256 323 401
315 605 -4 107 -18 129 -86 129 -84 0 -202 -79 -287 -192 -55 -74 -130 -223
-149 -298 l-13 -55 -22 75 c-12 41 -26 88 -32 104 -17 53 -9 74 73 198 137
206 192 344 205 506 6 85 -9 208 -32 253 -31 58 -108 48 -192 -26 -102 -89
-173 -240 -196 -414 l-12 -94 -52 106 c-73 149 -73 150 -19 289 64 163 79 231
78 368 -1 212 -70 390 -151 390 -116 0 -219 -263 -191 -489 6 -46 10 -85 8
-86 -2 -2 -36 27 -76 64 l-72 68 0 76 c0 42 9 112 20 159 31 125 36 248 15
344 -61 276 -191 311 -261 70 -27 -97 -11 -305 32 -411 7 -17 -20 2 -178 126
-20 15 -20 16 -2 50 16 29 18 59 19 214 0 162 -2 187 -23 245 -29 85 -60 138
-95 164 -26 19 -30 19 -54 6 -53 -30 -68 -73 -68 -195 0 -120 8 -154 73 -302
19 -46 32 -86 29 -89 -34 -34 -194 168 -234 295 -47 149 -104 230 -195 275
-61 30 -75 32 -107 10z m1714 -1662 c-21 -114 -68 -280 -95 -331 l-19 -36 -1
47 c0 54 23 180 46 253 24 74 78 189 82 176 2 -7 -4 -56 -13 -109z m-236 -901
c69 -84 151 -193 151 -202 0 -49 -178 137 -344 361 -26 34 158 -117 193 -159z
m456 -1543 c-190 -97 -380 -168 -418 -155 -13 4 109 82 171 109 47 20 284 86
312 87 8 0 -21 -18 -65 -41z m-809 -168 c7 -94 -14 -251 -36 -273 -21 -23 -24
368 -3 452 6 22 8 18 20 -29 7 -30 16 -98 19 -150z"/>
<path d="M4123 7991 c-59 -37 -54 -135 10 -167 64 -34 147 15 147 87 0 80 -87
124 -157 80z"/>
<path d="M5759 7981 c-62 -63 -20 -171 66 -171 29 0 45 8 72 35 32 32 35 40
30 73 -14 85 -110 121 -168 63z"/>
<path d="M4972 7501 c-10 -31 -21 -43 -58 -62 -26 -13 -47 -28 -47 -34 0 -5
19 -19 41 -29 32 -15 45 -29 62 -68 18 -43 25 -49 43 -44 12 3 25 6 30 6 4 0
7 10 7 21 0 21 57 84 94 105 17 9 15 13 -27 37 -36 22 -49 36 -58 67 -11 36
-16 40 -44 40 -28 0 -33 -4 -43 -39z"/>
<path d="M4269 7307 c-87 -36 -124 -63 -188 -134 -145 -161 -217 -421 -191
-697 14 -148 42 -252 95 -361 109 -221 251 -328 435 -330 76 0 92 3 158 34
172 81 297 285 337 548 61 406 -83 797 -341 924 -58 29 -79 34 -158 36 -78 3
-99 0 -147 -20z"/>
<path d="M5529 7315 c-142 -44 -289 -213 -354 -408 -77 -232 -70 -555 17 -766
140 -336 412 -450 668 -279 194 129 327 479 306 801 -22 322 -185 588 -399
652 -62 19 -177 18 -238 0z"/>
<path d="M3375 7130 c-58 -29 -79 -63 -83 -135 -2 -47 1 -67 17 -93 28 -44 77
-72 128 -72 78 0 123 71 54 86 -14 3 -41 12 -59 20 -31 13 -33 17 -30 56 3 37
7 44 31 53 26 9 32 6 56 -24 22 -27 32 -32 61 -29 31 3 35 6 38 36 9 94 -113
152 -213 102z"/>
<path d="M6525 7140 c-51 -21 -95 -103 -74 -141 15 -29 45 -23 75 16 29 39 56
44 92 19 17 -12 22 -24 20 -47 -3 -26 -12 -36 -58 -62 -66 -37 -73 -58 -29
-81 39 -20 101 -14 138 14 123 91 53 294 -101 291 -24 0 -52 -4 -63 -9z"/>
<path d="M3080 6698 c-44 -46 -87 -97 -97 -115 -17 -32 -17 -33 7 -58 43 -46
66 -36 168 75 96 105 108 132 74 163 -38 35 -68 22 -152 -65z"/>
<path d="M6802 6764 c-40 -28 -28 -58 59 -157 44 -51 89 -96 100 -101 23 -11
65 9 81 37 12 24 -18 71 -108 167 -70 74 -92 83 -132 54z"/>
<path d="M7067 6402 c-23 -26 -21 -56 7 -100 75 -120 151 -324 192 -517 21
-99 27 -157 31 -335 3 -120 10 -221 15 -227 15 -18 63 -16 79 4 19 22 25 290
9 440 -21 206 -85 423 -180 614 -60 118 -76 139 -109 139 -15 0 -35 -8 -44
-18z"/>
<path d="M3325 6218 c-84 -30 -188 -134 -238 -238 -88 -184 -113 -403 -76
-668 30 -214 141 -391 289 -461 46 -22 69 -26 140 -26 76 0 93 4 152 33 88 43
165 127 217 235 50 103 68 172 82 315 53 510 -238 927 -566 810z"/>
<path d="M6523 6226 c-134 -44 -255 -177 -318 -352 -60 -166 -72 -463 -26
-634 45 -166 141 -310 244 -368 263 -148 537 52 607 443 83 467 -107 906 -400
921 -38 2 -83 -2 -107 -10z"/>
<path d="M2746 6157 c-36 -60 -101 -265 -121 -377 -11 -61 -19 -171 -22 -305
-5 -236 0 -258 53 -263 51 -5 56 11 55 175 -2 243 35 459 113 658 20 49 36 95
36 101 0 20 -41 54 -65 54 -18 0 -31 -11 -49 -43z"/>
<path d="M4820 5473 c-263 -46 -465 -182 -568 -383 l-42 -81 -82 -41 c-64 -32
-103 -61 -169 -127 -73 -73 -93 -100 -132 -181 -114 -238 -101 -510 36 -745
53 -91 125 -170 368 -409 285 -280 524 -493 773 -688 20 -16 24 -14 82 35 34
29 120 100 192 159 199 164 344 298 617 572 273 273 307 319 367 487 89 254
41 539 -125 740 -58 69 -168 151 -249 184 -34 15 -48 27 -57 51 -20 54 -105
176 -154 222 -107 98 -249 167 -406 196 -78 15 -382 21 -451 9z m386 -467 c18
-13 19 -30 22 -229 l3 -216 217 0 c194 0 218 -2 229 -17 19 -26 18 -327 0
-343 -9 -7 -91 -12 -231 -13 l-218 -3 1 -213 c3 -283 18 -262 -188 -262 -140
0 -160 2 -174 18 -14 15 -17 51 -19 238 l-3 219 -217 1 c-159 1 -222 5 -233
14 -12 10 -15 42 -15 174 0 113 4 166 12 174 8 8 53 12 138 12 69 0 169 3 223
7 l97 6 0 208 c0 175 2 210 16 223 22 22 310 23 340 2z"/>
<path d="M2749 4961 c-127 -25 -167 -186 -68 -276 33 -30 46 -35 88 -35 59 0
106 29 138 85 67 118 -26 251 -158 226z"/>
<path d="M7165 4961 c-61 -15 -105 -62 -105 -114 0 -44 54 -45 90 -3 15 19 71
21 88 4 33 -33 0 -98 -49 -98 -29 0 -69 -26 -69 -45 0 -26 51 -55 95 -55 80 0
147 70 147 154 0 74 -38 126 -109 152 -42 15 -46 15 -88 5z"/>
<path d="M2840 4496 c-36 -17 -66 -38 -68 -48 -5 -24 104 -130 163 -158 35
-17 67 -25 110 -25 58 0 125 19 125 36 0 4 -28 27 -61 50 -34 23 -94 72 -133
109 l-71 68 -65 -32z"/>
<path d="M7048 4479 c-24 -28 -83 -81 -131 -117 l-89 -66 29 -15 c43 -23 139
-19 198 7 50 23 175 136 175 159 0 10 -116 83 -133 83 -3 0 -25 -23 -49 -51z"/>
<path d="M3013 4015 c-81 -22 -131 -52 -190 -111 -117 -116 -151 -291 -93
-465 11 -32 20 -61 20 -63 0 -3 -28 11 -62 30 -206 117 -415 159 -594 119
-115 -25 -174 -52 -328 -149 -75 -48 -149 -92 -164 -97 -54 -21 -122 -28 -169
-20 -27 5 -50 7 -52 5 -8 -8 26 -68 68 -121 55 -71 153 -142 275 -203 131 -65
230 -90 381 -97 198 -9 338 30 494 136 80 55 222 181 215 192 -10 16 -191 9
-326 -12 -107 -17 -164 -20 -298 -17 -91 2 -172 8 -180 13 -16 10 78 36 265
76 127 26 344 36 443 19 79 -13 89 -19 258 -153 183 -145 436 -281 665 -357
167 -56 209 -53 209 16 0 37 -19 53 -100 79 -297 96 -606 270 -762 426 -105
106 -150 197 -156 313 -5 104 13 166 69 230 131 148 357 129 446 -38 25 -46
24 -151 -3 -196 -40 -68 -130 -103 -168 -64 -10 9 -16 33 -16 58 0 70 -52 99
-98 56 -26 -25 -31 -105 -8 -148 83 -159 312 -126 406 58 89 174 -2 400 -190
471 -72 27 -189 34 -257 14z"/>
<path d="M6771 4014 c-262 -70 -359 -388 -174 -570 104 -101 256 -98 332 7 65
89 14 223 -68 179 -17 -8 -21 -20 -21 -59 0 -57 -21 -81 -69 -81 -78 0 -134
68 -139 169 -4 83 23 139 94 193 110 84 239 72 349 -33 77 -73 98 -128 93
-243 -7 -150 -69 -256 -228 -390 -156 -131 -397 -263 -618 -340 -56 -19 -111
-40 -122 -46 -27 -14 -27 -71 -1 -94 18 -17 23 -17 95 3 174 48 427 166 594
278 45 31 127 93 182 139 55 46 112 90 127 97 76 39 262 48 438 22 142 -21
367 -77 355 -89 -5 -5 -85 -11 -177 -14 -139 -4 -193 -1 -313 17 -155 24 -315
26 -315 4 0 -23 229 -203 310 -243 125 -62 186 -75 360 -74 121 1 166 5 230
23 159 43 324 138 430 247 54 54 106 137 94 148 -2 3 -26 0 -52 -5 -90 -16
-153 6 -320 115 -216 141 -311 172 -500 163 -157 -7 -267 -40 -410 -121 -54
-31 -76 -40 -71 -28 4 9 16 55 27 102 18 75 19 93 9 165 -39 265 -272 426
-521 359z"/>
<path d="M3683 3420 c-74 -30 -46 -150 36 -150 49 0 81 32 81 82 0 60 -56 92
-117 68z"/>
<path d="M6290 3423 c-54 -20 -69 -92 -27 -131 50 -47 137 -12 137 54 0 59
-55 97 -110 77z"/>
<path d="M4025 3261 c-50 -21 -71 -76 -50 -127 36 -88 159 -65 172 32 4 33 1
45 -18 67 -26 29 -72 42 -104 28z"/>
<path d="M5942 3255 c-56 -24 -68 -94 -26 -144 70 -83 205 13 154 110 -11 20
-60 49 -82 49 -7 -1 -28 -7 -46 -15z"/>
<path d="M4038 2764 c-107 -57 -23 -223 86 -171 36 17 70 74 60 104 -25 77
-80 103 -146 67z"/>
<path d="M5893 2761 c-87 -54 -29 -196 73 -177 41 8 84 57 84 97 0 71 -94 119
-157 80z"/>
<path d="M2830 2664 c-66 -18 -94 -40 -64 -50 92 -32 164 -66 249 -117 114
-69 165 -87 244 -87 58 0 127 13 139 25 11 11 -150 158 -207 189 -29 15 -76
35 -105 42 -66 18 -186 17 -256 -2z"/>
<path d="M6943 2670 c-78 -17 -155 -63 -243 -147 -106 -101 -103 -108 43 -108
112 0 108 -2 303 114 39 23 101 52 138 65 37 13 70 26 73 30 3 3 -16 15 -43
27 -55 25 -198 35 -271 19z"/>
<path d="M4347 2652 c-21 -23 -22 -56 -2 -75 19 -19 93 -35 202 -44 96 -7 113
2 113 59 0 40 -31 55 -142 67 -132 15 -152 14 -171 -7z"/>
<path d="M5483 2655 c-51 -6 -99 -18 -108 -25 -18 -15 -20 -71 -3 -88 7 -7 32
-12 58 -12 65 0 219 27 236 41 17 14 19 70 2 87 -15 15 -63 14 -185 -3z"/>
<path d="M4945 2166 c-272 -69 -369 -412 -169 -596 74 -68 143 -95 244 -95
109 0 174 22 240 82 28 25 50 49 48 53 -2 4 -31 30 -64 58 l-62 51 -23 -26
c-36 -38 -73 -53 -129 -53 -70 0 -123 29 -156 85 -23 40 -26 54 -22 109 3 51
10 71 32 101 31 40 94 74 139 75 38 0 96 -26 129 -56 l26 -26 66 52 c63 50 65
52 51 74 -20 30 -89 78 -141 99 -59 23 -150 29 -209 13z"/>
<path d="M2308 2164 c-5 -4 -8 -160 -8 -346 l0 -338 90 0 c50 0 89 3 89 8 -1
4 -1 49 0 100 l1 92 83 0 c111 0 168 20 228 80 55 55 74 109 66 186 -10 95
-70 175 -155 204 -41 14 -382 27 -394 14z m348 -187 c25 -29 31 -75 14 -107
-13 -25 -62 -40 -131 -40 l-59 0 0 91 0 91 76 -4 c69 -3 79 -6 100 -31z"/>
<path d="M3179 2163 c-54 -4 -56 -5 -69 -41 -7 -20 -71 -169 -141 -329 -71
-161 -129 -297 -129 -303 0 -6 36 -10 90 -10 l91 0 29 65 29 65 131 0 131 0
30 -65 31 -65 89 0 c49 0 89 2 89 5 0 3 -12 33 -26 68 -14 34 -75 183 -135
332 -109 271 -117 285 -164 282 -11 0 -45 -2 -76 -4z"/>
<path d="M3590 2153 c1 -10 56 -164 123 -343 l122 -325 69 0 70 0 39 110 c75
213 92 255 98 255 4 0 38 -83 76 -185 l68 -186 69 3 68 3 33 90 c91 246 215
586 215 591 0 7 -175 3 -188 -5 -6 -3 -33 -73 -61 -156 -29 -82 -54 -157 -58
-165 -3 -8 -31 62 -63 155 l-57 170 -99 0 -99 0 -59 -168 c-33 -92 -63 -164
-66 -160 -4 5 -28 73 -55 153 -26 80 -52 153 -57 163 -7 14 -23 17 -98 17 -79
0 -90 -2 -90 -17z"/>
<path d="M5688 2140 c-5 -14 -51 -122 -103 -240 -129 -298 -175 -406 -175
-414 0 -3 42 -6 93 -6 l92 0 25 63 25 62 132 3 131 3 30 -66 31 -65 92 0 c69
0 90 3 86 13 -3 6 -63 156 -133 332 -70 176 -132 326 -137 333 -7 9 -34 12
-95 10 -80 -3 -85 -4 -94 -28z"/>
<path d="M6396 1835 c-4 -196 -3 -342 2 -347 5 -5 44 -8 88 -6 l79 3 3 103 3
102 48 0 48 0 69 -105 69 -105 103 0 103 0 -15 28 c-8 15 -46 69 -85 121 l-70
93 43 42 c78 76 97 187 48 282 -25 50 -46 68 -107 96 -44 19 -71 22 -236 26
l-186 4 -7 -337z m334 162 c55 -28 64 -94 18 -137 -18 -17 -35 -20 -100 -20
l-78 0 0 85 0 85 68 0 c37 0 78 -6 92 -13z"/>
<path d="M7197 2163 c-4 -3 -7 -159 -7 -345 l0 -338 245 0 245 0 0 75 0 75
-155 0 -155 0 0 61 0 61 115 -4 115 -3 0 73 0 72 -115 0 -115 0 0 60 0 60 155
0 155 0 0 80 0 80 -238 0 c-131 0 -242 -3 -245 -7z"/>
<path d="M2804 1194 c4 -14 28 -70 53 -125 62 -133 71 -132 134 16 26 61 48
116 48 123 1 6 -9 12 -22 12 -20 0 -28 -13 -58 -86 l-35 -86 -38 86 c-33 75
-42 86 -63 86 -22 0 -24 -3 -19 -26z"/>
<path d="M3110 1095 l0 -125 85 0 c84 0 85 0 85 25 0 24 -3 25 -60 25 -57 0
-60 1 -60 25 0 23 4 25 44 25 39 0 44 3 48 25 5 24 3 25 -43 25 -46 0 -49 2
-49 25 0 24 3 25 60 25 57 0 60 1 60 25 0 25 -1 25 -85 25 l-85 0 0 -125z"/>
<path d="M3330 1195 c0 -22 4 -25 34 -25 l34 0 7 -100 c7 -97 8 -100 31 -100
24 0 24 1 24 100 l0 100 35 0 c31 0 35 3 35 25 l0 25 -100 0 -100 0 0 -25z"/>
<path d="M3590 1095 l0 -125 90 0 c89 0 90 0 90 25 0 24 -3 25 -60 25 -57 0
-60 1 -60 24 0 22 5 25 43 28 34 2 43 7 45 25 3 20 -2 22 -45 25 -41 3 -48 6
-51 25 -3 20 1 22 60 25 57 3 63 5 66 26 3 21 1 22 -87 22 l-91 0 0 -125z"/>
<path d="M3841 1096 l2 -126 28 0 c28 0 29 2 29 46 0 38 3 45 17 42 10 -2 30
-22 46 -46 23 -34 34 -42 58 -42 l30 0 -27 46 -27 45 22 20 c27 25 28 78 2
110 -17 21 -30 24 -101 27 l-81 4 2 -126z"/>
<path d="M4400 1095 l0 -125 25 0 c21 0 25 5 27 33 0 17 2 37 3 42 2 6 3 21 4
35 1 22 7 18 62 -43 35 -38 69 -67 80 -67 19 0 21 7 21 90 0 159 0 160 -27
160 -25 0 -25 -2 -25 -77 l0 -77 -30 34 c-17 19 -44 54 -62 78 -21 28 -39 42
-55 42 -23 0 -23 -1 -23 -125z"/>
<path d="M4777 1213 c-8 -13 -97 -232 -97 -238 0 -3 13 -5 29 -5 20 0 30 6 34
20 4 17 14 20 57 20 43 0 53 -3 57 -19 3 -13 16 -20 39 -23 19 -2 34 -2 33 2
0 3 -24 59 -52 125 -41 94 -57 121 -74 123 -12 2 -23 0 -26 -5z"/>
<path d="M4990 1095 l0 -125 25 0 c22 0 25 5 25 33 1 73 37 74 76 1 16 -31 27
-40 52 -42 18 -2 32 -1 32 2 0 3 -14 27 -30 53 -31 48 -31 48 -10 62 15 10 20
24 20 56 0 64 -31 85 -121 85 l-69 0 0 -125z"/>
<path d="M5230 1213 c0 -4 18 -37 40 -74 28 -45 43 -83 47 -118 5 -45 8 -51
29 -51 21 0 24 5 24 43 0 43 3 51 59 150 l33 57 -29 0 c-22 -1 -33 -9 -55 -46
-16 -25 -33 -42 -38 -39 -6 4 -22 24 -36 46 -17 28 -31 39 -49 39 -14 0 -25
-3 -25 -7z"/>
<path d="M5773 1205 c-17 -12 -23 -26 -23 -54 0 -44 17 -63 73 -81 26 -8 37
-17 37 -31 0 -28 -29 -35 -63 -15 -22 12 -33 14 -43 5 -24 -20 -15 -36 27 -53
70 -28 139 4 139 64 0 37 -18 56 -72 79 -48 20 -62 44 -33 55 8 3 27 1 42 -5
33 -12 53 3 37 29 -15 23 -92 28 -121 7z"/>
<path d="M5950 1213 c0 -4 19 -38 42 -76 29 -47 42 -83 46 -118 4 -43 7 -49
27 -49 20 0 23 6 27 58 3 47 11 68 46 119 23 34 42 64 42 67 0 4 -13 6 -29 6
-24 0 -34 -8 -56 -45 -14 -25 -31 -43 -36 -39 -5 3 -21 23 -35 45 -17 28 -31
39 -49 39 -14 0 -25 -3 -25 -7z"/>
<path d="M6225 1195 c-14 -13 -25 -35 -25 -48 0 -28 35 -63 72 -72 34 -9 50
-28 42 -49 -8 -21 -29 -20 -65 1 -26 16 -31 16 -39 3 -17 -27 -11 -38 31 -54
51 -21 92 -13 119 21 40 51 22 90 -53 123 -36 15 -48 25 -45 37 3 13 11 17 28
14 56 -8 65 -6 68 15 6 41 -95 48 -133 9z"/>
<path d="M6410 1195 c0 -22 4 -25 35 -25 l35 0 0 -100 0 -100 30 0 30 0 0 100
0 100 35 0 c31 0 35 3 35 25 l0 25 -100 0 -100 0 0 -25z"/>
<path d="M6660 1111 c0 -60 3 -116 6 -125 5 -13 23 -16 90 -16 46 0 84 4 84 9
0 32 -14 41 -66 41 -51 0 -54 1 -54 25 0 23 4 25 45 25 41 0 45 2 45 25 0 23
-4 25 -45 25 -41 0 -45 2 -45 25 0 24 3 25 55 25 52 0 55 1 55 25 0 25 -1 25
-85 25 l-85 0 0 -109z"/>
<path d="M6910 1095 l0 -125 25 0 c23 0 24 4 27 63 l3 62 30 -47 c17 -26 35
-47 40 -47 6 0 23 19 40 44 16 24 31 42 34 40 4 -4 6 -22 9 -87 2 -23 7 -28
27 -28 l25 0 0 125 0 125 -25 0 c-14 0 -25 -5 -25 -11 0 -6 -19 -38 -42 -70
l-41 -59 -38 57 c-48 74 -56 83 -74 83 -12 0 -15 -22 -15 -125z"/>
</g>
</svg>
