<?xml version="1.0" standalone="no"?>
<!DOCTYPE svg PUBLIC "-//W3C//DTD SVG 20010904//EN"
 "http://www.w3.org/TR/2001/REC-SVG-20010904/DTD/svg10.dtd">
<svg version="1.0" xmlns="http://www.w3.org/2000/svg"
 width="1280.000000pt" height="853.000000pt" viewBox="0 0 1280.000000 853.000000"
 preserveAspectRatio="xMidYMid meet">

<g transform="translate(0.000000,853.000000) scale(0.100000,-0.100000)"
fill="#000000" stroke="none">
<path d="M0 4265 l0 -4265 6400 0 6400 0 0 4265 0 4265 -6400 0 -6400 0 0
-4265z m4315 1815 c47 -42 104 -62 187 -66 l82 -3 58 -61 c32 -34 58 -67 59
-73 0 -7 2 -22 3 -34 3 -29 -7 -29 -43 -2 -17 13 -34 18 -42 14 -8 -6 -11 -4
-7 6 4 10 -1 15 -12 15 -16 0 -17 -4 -7 -28 7 -15 33 -49 58 -75 55 -57 120
-156 158 -241 6 -12 17 -25 26 -28 8 -3 12 -10 9 -15 -3 -5 -1 -9 4 -9 5 0 12
-9 15 -21 3 -12 10 -18 15 -15 5 3 8 -6 6 -20 -1 -14 0 -23 3 -20 8 8 29 -16
35 -41 4 -14 2 -23 -5 -24 -8 0 -8 -2 1 -6 6 -2 10 -8 8 -12 -10 -15 35 -141
60 -171 29 -34 46 -36 113 -16 25 8 101 22 169 31 132 17 198 43 270 106 42
37 68 43 157 35 62 -6 78 -4 106 13 37 22 81 27 149 16 38 -6 49 -4 70 15 14
12 36 27 50 33 20 8 267 16 529 17 14 0 27 -4 31 -9 3 -5 18 -13 33 -16 15 -4
27 -11 27 -16 0 -5 7 -9 16 -9 8 0 13 4 10 9 -3 5 17 -2 44 -16 44 -22 60 -25
123 -20 79 6 96 9 115 20 7 5 12 4 12 -2 0 -6 5 -11 12 -11 6 0 21 -9 33 -20
14 -13 41 -22 81 -25 94 -9 114 -14 172 -41 36 -17 65 -24 86 -21 37 6 115
-18 138 -43 9 -10 22 -36 28 -59 6 -22 14 -41 18 -41 4 -1 31 -3 60 -6 29 -3
65 -1 81 4 50 18 208 -37 263 -90 14 -14 23 -16 44 -8 27 11 95 6 122 -9 21
-11 220 -3 244 10 31 17 82 10 108 -14 30 -27 102 -52 126 -43 9 4 24 0 34 -9
20 -18 139 -64 200 -76 25 -5 68 -16 97 -25 41 -13 58 -14 84 -5 53 18 87 14
112 -16 46 -55 67 -73 86 -73 31 0 146 -56 215 -104 34 -23 79 -51 100 -62 21
-10 57 -38 80 -61 23 -24 46 -43 52 -43 13 0 77 -68 94 -100 11 -21 22 -35 84
-107 29 -34 93 -73 119 -73 16 0 87 -69 87 -84 0 -5 -8 -2 -17 6 -10 9 -24 13
-30 11 -7 -3 -13 -1 -13 4 0 4 -42 8 -94 8 -52 0 -92 4 -89 9 3 5 0 7 -7 4
-14 -4 -80 62 -80 80 0 16 -50 52 -71 52 -10 0 -23 9 -29 19 -6 13 -16 17 -31
14 -16 -4 -18 -8 -7 -14 20 -14 -11 -31 -42 -23 -14 4 -32 6 -40 7 -38 0 -40
-2 -29 -30 14 -36 43 -63 69 -63 12 0 40 -15 63 -34 23 -18 53 -39 67 -46 14
-7 43 -32 64 -56 21 -24 43 -44 48 -44 5 0 23 -15 40 -34 28 -32 34 -34 93
-35 58 0 64 2 85 29 26 34 72 40 106 15 25 -19 34 -19 34 3 0 15 27 -10 104
-98 7 -8 30 -43 50 -77 36 -58 39 -70 53 -198 8 -75 12 -148 9 -161 -10 -38
-36 -42 -61 -10 l-22 28 -19 -38 c-25 -49 -38 -48 -45 3 -6 49 -15 61 -31 45
-13 -13 -43 12 -33 28 3 5 1 18 -5 27 -9 15 -10 14 -4 -7 5 -20 4 -23 -7 -12
-18 17 -34 15 -19 -3 11 -13 8 -13 -17 -4 -25 8 -29 15 -28 40 1 21 -1 27 -9
19 -15 -15 -24 -12 -31 10 -11 34 -28 23 -21 -12 5 -31 5 -32 -9 -14 -8 11
-15 26 -15 34 0 7 -4 11 -9 8 -5 -4 -7 2 -4 12 3 12 -1 19 -10 19 -9 0 -13 -6
-10 -14 3 -7 0 -13 -6 -13 -6 0 -8 -7 -4 -17 4 -11 3 -14 -5 -9 -7 4 -12 15
-13 24 0 11 -3 12 -6 5 -2 -7 -15 -13 -28 -13 -13 0 -27 -5 -30 -11 -11 -17 3
-23 20 -9 20 17 32 5 15 -15 -7 -8 -9 -15 -4 -15 5 0 2 -5 -6 -10 -8 -5 -16
-21 -17 -36 -3 -39 -10 -54 -27 -54 -10 0 -13 6 -10 15 4 8 2 15 -2 16 -5 0
-19 2 -31 3 -21 2 -23 -2 -23 -41 0 -24 -4 -43 -10 -43 -5 0 -10 -13 -10 -30
0 -43 -13 -37 -44 19 -23 42 -31 50 -54 48 -25 -2 -27 1 -25 31 1 17 -3 32 -9
32 -6 0 -9 20 -6 50 2 31 0 46 -7 40 -11 -12 -28 -13 -21 -2 3 5 -1 9 -9 9 -8
0 -11 -5 -8 -10 3 -5 -7 -2 -23 7 -16 10 -44 42 -62 71 -29 46 -37 53 -55 46
-12 -5 -22 -13 -21 -20 1 -6 2 -19 3 -28 0 -10 15 -34 32 -53 16 -19 37 -47
47 -62 9 -16 20 -28 25 -28 4 0 5 -4 2 -10 -3 -5 -1 -10 4 -10 6 0 11 -4 11
-10 0 -5 -6 -10 -14 -10 -17 0 -29 -27 -15 -35 5 -4 7 -11 4 -16 -6 -8 6 -27
33 -52 35 -32 42 -37 54 -35 7 2 12 -5 12 -14 -1 -10 2 -18 7 -18 8 0 13 15
10 33 0 4 4 7 9 7 6 0 10 -2 10 -4 0 -2 3 -12 7 -22 5 -13 3 -15 -7 -9 -8 5
-11 4 -6 -3 4 -6 14 -8 23 -5 11 5 14 3 8 -6 -4 -8 4 -6 19 4 14 10 26 13 26
7 0 -5 9 -12 19 -15 13 -3 22 -17 27 -43 3 -22 11 -44 16 -51 5 -6 11 -28 14
-49 3 -20 11 -42 20 -48 16 -12 9 -50 -7 -40 -5 3 -9 -2 -9 -10 0 -8 8 -16 18
-18 11 -2 13 -6 5 -11 -13 -8 -46 20 -38 34 4 5 1 9 -5 9 -6 0 -16 11 -22 25
-15 34 -37 33 -30 -2 3 -16 8 -30 12 -33 12 -9 69 -156 74 -191 2 -19 9 -58
15 -88 16 -77 14 -140 -5 -158 -11 -12 -18 -13 -27 -4 -6 6 -28 11 -48 11 -24
0 -39 5 -43 16 -10 27 -7 38 19 67 15 16 21 27 13 27 -8 1 -7 5 5 14 14 11 15
15 4 24 -10 8 -28 7 -68 -4 -59 -17 -151 -25 -143 -12 3 4 1 8 -5 8 -5 0 -11
-5 -13 -11 -2 -6 -25 4 -53 23 -46 31 -56 33 -125 32 -41 0 -78 3 -81 8 -3 5
-17 10 -30 11 -13 1 -30 7 -37 14 -16 15 -41 17 -62 3 -9 -6 -17 -5 -22 3 -6
9 -8 9 -8 -1 0 -7 -5 -10 -10 -7 -6 4 -8 10 -6 14 3 3 -4 7 -14 7 -10 0 -16
-5 -13 -10 4 -5 0 -7 -8 -4 -8 3 -23 0 -33 -8 -18 -13 -18 -14 -2 -20 10 -4
21 -3 25 2 3 5 12 9 19 8 6 -1 17 -2 23 -3 8 -1 8 -5 -1 -16 -7 -8 -16 -12
-21 -9 -5 3 -9 1 -9 -5 0 -5 -17 -10 -38 -9 -22 0 -49 -5 -62 -12 -13 -7 -36
-9 -57 -5 -27 5 -33 3 -28 -7 6 -10 5 -10 -5 -1 -7 6 -18 9 -24 7 -7 -3 -24 0
-39 5 -19 7 -25 15 -20 27 9 23 -12 32 -89 40 -49 5 -65 10 -61 19 3 10 -2 12
-16 8 -12 -3 -21 -1 -21 6 0 6 -10 11 -22 11 -13 0 -34 9 -48 19 -22 18 -25
18 -36 3 -10 -13 -15 -14 -27 -3 -9 7 -15 21 -14 32 1 19 2 19 14 3 12 -17 13
-17 13 2 0 13 7 20 19 20 11 0 17 -5 14 -13 -3 -7 2 -13 10 -13 8 0 17 -7 21
-15 3 -8 16 -14 28 -14 17 1 18 2 6 6 -26 6 -22 23 5 23 17 0 19 2 7 10 -12 7
-11 10 5 16 11 4 28 14 38 22 9 8 17 10 17 4 0 -6 -6 -12 -12 -14 -10 -4 -10
-10 -1 -29 l12 -24 1 25 c0 22 2 23 11 8 10 -18 59 -25 59 -9 0 13 48 29 108
36 36 5 52 11 52 22 0 8 5 11 10 8 14 -8 72 54 86 92 9 25 8 28 -12 29 -17 1
-22 -3 -19 -16 4 -19 -31 -35 -41 -19 -3 5 -16 2 -29 -7 -13 -9 -30 -13 -37
-9 -7 4 -5 0 5 -8 16 -13 16 -15 1 -21 -9 -3 -21 -3 -26 1 -7 3 -8 1 -4 -5 8
-13 -20 -12 -41 1 -6 4 -13 2 -15 -4 -2 -7 -13 -9 -26 -5 -12 4 -20 11 -18 15
3 4 7 21 10 37 5 27 2 32 -31 46 -32 15 -39 15 -64 3 -15 -8 -29 -19 -31 -25
-2 -7 -11 -8 -22 -4 -18 7 -18 8 -1 20 17 12 17 14 1 20 -9 3 -31 3 -50 0 -24
-5 -35 -3 -39 8 -6 14 21 32 31 21 3 -3 0 -5 -6 -5 -7 0 -12 -4 -12 -10 0 -5
7 -7 15 -3 25 9 13 37 -16 40 -23 1 -25 -2 -24 -28 1 -16 -2 -29 -7 -29 -4 0
-8 9 -8 19 0 10 -7 21 -14 24 -11 4 -13 1 -9 -11 5 -13 3 -14 -6 -6 -13 12
-61 -3 -61 -19 0 -5 -4 -5 -10 -2 -5 3 -10 2 -10 -3 0 -5 -11 -14 -23 -19 -22
-10 -23 -9 -20 12 6 26 -14 34 -71 29 -24 -2 -34 1 -30 7 4 8 1 8 -12 1 -30
-16 -95 -70 -95 -79 0 -4 -7 -7 -14 -5 -10 2 -13 -3 -9 -13 4 -9 0 -15 -9 -15
-9 0 -20 -6 -24 -14 -4 -8 -25 -28 -47 -45 -21 -17 -34 -31 -29 -31 6 0 22 9
36 20 14 11 28 20 32 20 3 0 13 7 22 15 8 8 20 12 26 8 8 -5 8 -8 -1 -11 -7
-2 -12 -10 -12 -18 0 -8 -4 -14 -9 -14 -5 0 -19 -11 -32 -25 -13 -13 -30 -25
-37 -25 -7 0 -20 -6 -28 -14 -7 -8 -24 -23 -37 -33 -13 -10 -28 -33 -35 -50
-14 -42 -9 -42 16 2 12 20 36 41 58 50 50 21 61 19 33 -6 -13 -11 -18 -18 -11
-14 19 10 14 -1 -12 -30 -15 -16 -22 -33 -19 -45 3 -11 -2 -27 -12 -36 -12
-12 -13 -19 -5 -24 7 -4 0 -9 -18 -12 -17 -2 -29 -1 -26 4 3 4 1 8 -5 8 -6 0
-8 12 -4 30 3 20 1 30 -6 30 -8 0 -10 -8 -6 -19 3 -12 0 -21 -10 -25 -8 -3
-15 -1 -15 5 0 5 -12 1 -27 -8 -28 -18 -29 -18 -49 -2 -16 13 -29 -38 -15 -55
6 -7 8 -16 4 -19 -14 -15 -20 -5 -18 33 2 41 -8 53 -19 24 -9 -24 -19 -10 -11
15 3 12 13 21 21 21 8 0 12 5 9 10 -3 6 -1 10 5 10 6 0 9 4 6 8 -5 9 36 62 48
62 4 0 4 -5 1 -11 -11 -16 39 14 50 31 5 8 10 17 10 20 1 16 37 80 45 80 17 0
11 25 -10 37 -17 11 -21 10 -31 -10 -9 -18 -9 -20 2 -9 19 18 31 15 20 -5 -13
-25 -68 -56 -76 -43 -3 5 -3 14 0 20 4 6 -1 7 -11 3 -12 -4 -15 -2 -12 8 3 8
11 13 17 12 6 -2 11 8 11 22 0 14 5 25 10 25 6 0 10 6 10 14 0 24 19 28 53 11
31 -16 32 -15 55 11 l23 27 -27 17 c-15 10 -33 16 -40 13 -8 -3 -14 1 -14 8 0
7 3 9 6 6 12 -11 43 13 38 28 -8 21 6 19 22 -2 8 -12 9 -22 2 -30 -7 -9 -4
-11 11 -10 11 0 17 5 14 10 -3 5 1 13 8 18 10 6 8 9 -9 9 -15 0 -22 5 -19 13
2 6 10 11 16 10 6 -2 11 2 11 8 0 7 -9 9 -21 6 -16 -4 -18 -3 -8 9 6 8 18 14
27 14 13 0 13 2 -1 18 -27 30 -21 42 19 37 34 -4 35 -4 15 13 -15 12 -19 24
-15 40 4 12 11 22 16 22 6 0 8 -7 4 -15 -3 -8 -1 -15 3 -15 5 0 11 7 15 15 3
8 12 12 19 9 8 -3 17 2 20 10 4 10 1 16 -9 16 -8 0 -12 5 -8 11 5 8 1 8 -14 0
-28 -15 -32 -14 -26 4 4 8 11 12 18 8 6 -4 5 1 -3 11 -12 15 -12 19 1 33 15
14 17 13 30 -10 l13 -26 25 20 c20 15 21 18 5 12 -21 -7 -22 -7 24 47 2 3 1
-3 -3 -14 -5 -14 -3 -17 10 -12 8 3 22 6 30 6 9 0 12 4 9 10 -3 6 1 7 10 4 12
-5 13 -10 4 -20 -6 -8 -14 -12 -18 -10 -4 3 -7 -4 -7 -14 0 -10 6 -16 13 -13
7 3 11 9 8 13 -3 5 3 8 14 7 16 -1 18 -4 8 -16 -10 -12 -8 -13 16 -7 16 4 27
2 27 -4 0 -5 4 -10 9 -10 5 0 7 9 4 19 -4 16 0 19 21 17 15 -2 24 -1 22 2 -12
11 26 33 62 35 21 1 39 7 39 13 0 11 -20 12 -54 0 -13 -4 -30 -3 -39 2 -13 7
-7 11 25 16 22 3 41 11 41 18 0 6 8 17 18 24 15 12 14 13 -10 14 -16 0 -28 5
-28 10 0 6 9 10 19 10 11 0 22 4 25 9 4 5 -4 7 -16 5 -17 -3 -15 -1 7 10 17 9
26 15 22 16 -4 0 1 10 13 22 22 24 25 34 10 43 -6 4 -7 11 -4 17 5 7 1 9 -9 5
-9 -3 -19 -2 -22 3 -4 6 -17 10 -31 10 -14 0 -23 4 -20 9 3 5 0 14 -8 20 -11
9 -15 9 -19 -1 -3 -7 -6 -4 -6 7 -1 11 -10 26 -21 32 -16 10 -18 10 -14 -1 3
-7 -1 -18 -9 -25 -11 -9 -17 -8 -28 6 -11 13 -11 15 -1 9 11 -7 11 -4 1 12
-13 20 -13 20 -27 -8 -16 -32 -48 -48 -65 -31 -7 7 -4 9 12 6 12 -2 19 0 16 5
-6 10 -24 8 -44 -4 -11 -7 -13 -5 -8 8 5 13 3 17 -7 13 -8 -3 -17 0 -20 8 -3
10 0 12 12 8 15 -6 15 -5 3 10 -14 18 -31 14 -31 -7 0 -8 -8 -20 -17 -27 -16
-12 -17 -12 -7 1 6 8 11 29 10 45 -1 17 3 36 8 43 5 7 6 15 2 19 -3 3 -6 1 -6
-5 0 -6 -7 -9 -15 -6 -9 4 -15 0 -15 -10 0 -9 -4 -16 -8 -16 -7 0 -11 19 -13
66 -1 16 -6 20 -20 17 -16 -4 -19 0 -19 25 0 17 -9 51 -19 75 -11 25 -18 47
-16 49 2 2 -4 9 -15 16 -14 8 -21 9 -26 0 -4 -7 -3 -8 4 -4 14 9 27 -17 41
-81 14 -66 2 -107 -14 -49 -10 36 -12 37 -28 22 -16 -16 -17 -16 -18 1 -1 17
-2 17 -6 1 -5 -21 -19 -23 -26 -5 -3 6 -6 3 -7 -8 -1 -20 -1 -20 -15 -1 -13
17 -17 18 -28 6 -6 -7 -7 -10 -1 -7 7 4 9 -5 6 -25 -3 -20 -7 -26 -13 -17 -4
7 -5 17 -2 23 4 5 -1 7 -11 3 -10 -4 -15 -3 -11 3 11 17 -14 49 -35 45 -12 -2
-18 0 -15 6 4 5 11 7 16 4 16 -10 10 16 -11 44 -23 33 -37 97 -19 85 8 -4 9
-3 5 4 -4 6 -12 9 -20 6 -7 -3 -13 2 -13 10 0 8 6 12 15 8 12 -4 14 -1 9 13
-7 16 -5 16 9 4 16 -13 16 -12 6 8 -16 29 -15 64 1 58 14 -6 17 42 3 64 -6 9
-5 12 2 7 18 -11 20 27 3 59 -9 17 -17 31 -17 33 -1 1 -12 5 -24 7 -13 3 -28
9 -34 15 -18 19 42 0 107 -32 31 -15 57 -25 57 -22 0 4 8 0 18 -8 27 -24 46
-33 37 -18 -4 7 -2 16 6 22 11 8 10 8 -4 4 -12 -4 -17 -2 -14 6 2 7 0 21 -5
32 -7 14 -7 16 2 11 9 -6 9 -2 0 14 -6 12 -15 19 -20 16 -5 -3 -11 -1 -15 5
-4 6 -11 8 -16 5 -5 -3 -6 1 -3 10 5 13 0 15 -30 12 -19 -2 -34 -1 -31 3 6 10
-43 62 -54 56 -5 -4 -15 2 -21 11 -10 16 -11 16 -6 1 3 -10 1 -20 -4 -23 -17
-11 -11 -27 8 -20 13 5 14 3 5 -6 -18 -18 -31 -2 -28 33 2 18 -1 38 -6 44 -6
8 -4 14 6 18 9 3 14 2 11 -3 -3 -5 1 -12 10 -15 8 -3 12 -2 9 3 -3 5 -1 13 5
16 6 4 10 3 9 -2 -4 -21 3 -32 19 -30 20 1 72 -31 72 -45 0 -5 5 -6 10 -3 6 3
10 1 10 -5 0 -5 14 -23 32 -39 26 -23 35 -27 50 -17 26 16 22 41 -9 65 l-28
20 25 1 c14 1 38 6 54 13 l28 12 -53 46 c-76 65 -147 106 -204 119 -28 6 -65
20 -83 31 -41 24 -46 24 -39 -1 4 -15 -1 -22 -19 -26 -13 -3 -24 -13 -24 -21
0 -12 -8 -14 -33 -9 -21 4 -40 1 -52 -8 -19 -14 -19 -15 10 -26 89 -32 142
-56 154 -68 17 -17 22 -95 5 -81 -6 5 -14 6 -18 2 -4 -4 -4 0 -1 9 5 14 0 17
-26 16 -31 -1 -32 -2 -11 -11 23 -11 28 -22 12 -32 -5 -3 -7 -12 -4 -19 3 -8
-3 -17 -14 -20 -10 -4 -19 -13 -19 -20 0 -8 6 -12 14 -9 7 3 10 10 7 17 -6 12
22 -20 37 -44 8 -11 11 -12 15 -2 7 14 30 16 39 2 3 -6 -1 -7 -9 -4 -10 4 -16
1 -16 -9 0 -22 -28 -29 -39 -9 -6 9 -11 13 -11 8 0 -6 -6 -2 -13 8 -8 11 -28
18 -55 19 -29 2 -41 6 -39 16 1 7 -9 17 -22 22 -20 8 -22 7 -12 -4 9 -12 7
-13 -14 -9 -14 2 -25 11 -25 19 0 8 -4 12 -9 9 -5 -4 -11 -2 -13 4 -1 5 -22
11 -45 12 -24 2 -43 5 -43 8 0 3 -9 6 -19 6 -11 0 -17 -4 -15 -8 7 -10 -20
-10 -30 0 -4 4 -26 8 -49 9 -23 1 -58 2 -77 3 -41 2 -95 -7 -121 -20 -24 -14
-29 -12 -23 5 4 8 11 12 17 8 5 -3 7 -2 4 4 -14 23 63 133 94 133 6 0 25 7 42
15 18 8 55 18 82 23 44 7 48 9 30 19 -11 6 -41 14 -66 18 -39 6 -49 3 -75 -17
-32 -27 -57 -39 -94 -45 -13 -2 -47 -27 -74 -56 -28 -28 -45 -47 -38 -43 21
13 13 -12 -10 -34 -13 -12 -35 -28 -50 -36 -24 -12 -26 -17 -16 -33 10 -16 0
-29 -76 -102 -48 -46 -96 -99 -108 -117 -20 -33 -64 -62 -93 -62 -10 0 -13 5
-9 11 4 7 8 28 10 47 2 20 9 39 16 44 8 5 1 8 -20 8 -26 0 -35 -5 -43 -27 -6
-16 -16 -37 -22 -48 -8 -15 -18 -75 -13 -75 1 0 16 4 34 9 17 5 32 6 32 3 0
-18 -33 -53 -46 -48 -8 3 -14 2 -14 -3 0 -4 -11 -13 -25 -19 -14 -7 -30 -23
-36 -36 -6 -13 -22 -29 -36 -35 -29 -14 -43 -14 -23 -1 13 8 12 10 -2 10 -10
0 -18 5 -18 10 0 6 -7 10 -16 10 -10 0 -14 6 -11 14 9 22 -28 26 -61 6 -33
-21 -70 -17 -90 9 -9 12 -31 16 -82 17 -56 0 -72 4 -87 20 -10 11 -36 26 -58
34 -22 7 -42 17 -45 21 -11 16 -118 -9 -159 -37 -48 -32 -51 -40 -13 -49 15
-3 41 -17 57 -30 25 -22 35 -24 77 -19 42 6 48 4 49 -12 3 -45 -4 -71 -28
-106 -32 -47 -64 -50 -89 -9 -18 30 -88 81 -112 81 -8 0 -29 7 -47 16 -59 28
-77 12 -90 -83 -5 -34 6 -48 40 -48 12 0 19 -6 17 -14 -2 -8 2 -17 9 -22 6 -4
11 -22 11 -40 -1 -19 -2 -49 -2 -67 0 -20 -6 -35 -15 -38 -8 -4 -15 -9 -15
-13 0 -13 49 -31 83 -31 34 0 107 -42 107 -62 0 -6 21 10 46 37 36 36 48 44
55 34 5 -8 9 -10 9 -5 0 6 6 1 14 -9 11 -16 18 -17 37 -9 44 19 54 12 57 -36
4 -52 20 -79 34 -58 7 9 8 6 5 -10 -4 -16 -2 -22 7 -19 9 4 12 -2 9 -17 -4
-17 -12 -23 -41 -24 -20 -2 -41 -7 -47 -12 -14 -12 -38 8 -59 48 -16 32 -19
33 -60 27 -37 -6 -46 -4 -58 13 -9 13 -27 21 -53 23 -22 2 -42 6 -45 9 -21 24
-57 36 -78 27 -17 -8 -39 -4 -92 14 -38 13 -72 20 -75 17 -4 -4 5 -29 19 -57
22 -45 23 -49 5 -38 -10 6 -19 17 -19 24 0 7 -12 13 -26 13 -14 0 -34 4 -44
10 -29 15 -46 -12 -30 -49 9 -23 9 -42 0 -88 -7 -32 -16 -63 -22 -70 -5 -6 -8
-17 -7 -25 4 -36 -3 -56 -26 -66 -32 -15 -46 -67 -28 -103 16 -31 19 -84 9
-117 -5 -15 -2 -32 9 -48 19 -29 14 -53 -21 -105 -44 -65 -18 -179 40 -179 12
0 36 9 55 21 40 24 49 18 59 -42 8 -43 9 -44 42 -42 19 1 51 5 71 8 29 6 44 1
84 -24 27 -17 57 -31 68 -31 10 0 15 -5 12 -10 -3 -5 1 -10 9 -10 9 0 16 -7
16 -16 0 -14 3 -14 15 -4 10 9 15 9 15 1 0 -6 6 -11 14 -11 8 0 16 -4 18 -9 5
-15 56 -25 130 -25 79 -1 101 -15 73 -46 -10 -11 -26 -20 -35 -20 -9 0 -26
-11 -38 -25 l-21 -24 37 -11 c52 -14 55 -13 74 19 16 29 64 50 113 51 28 1 60
20 85 53 25 31 21 54 -9 59 -39 6 -5 29 49 34 30 2 59 9 64 14 6 6 18 10 29
10 10 0 17 5 15 12 -6 16 34 48 59 48 10 0 24 -4 32 -9 11 -7 9 -11 -8 -20
-28 -16 -27 -28 10 -58 25 -21 30 -32 27 -62 -2 -20 -7 -39 -12 -42 -5 -4 7
-23 26 -43 l36 -37 58 27 c33 15 65 26 71 25 8 -1 10 4 7 14 -9 21 12 19 28
-4 13 -19 18 -21 43 -21 8 0 15 -4 15 -8 0 -5 -31 -14 -70 -21 -38 -7 -70 -16
-71 -19 0 -4 -2 -15 -4 -25 -2 -9 1 -15 6 -11 5 3 9 -4 9 -15 0 -32 74 -43
154 -21 38 10 70 14 78 9 10 -7 9 -9 -4 -9 -27 0 -189 -57 -202 -70 -8 -10 -4
-11 22 -8 17 3 32 1 32 -4 0 -5 4 -7 10 -3 5 3 26 -1 46 -10 20 -8 40 -12 45
-9 5 3 9 0 9 -5 0 -6 -4 -11 -10 -11 -5 0 -7 -7 -4 -15 4 -9 0 -15 -7 -15 -8
-1 5 -10 29 -21 37 -17 45 -18 57 -6 12 12 10 16 -11 26 -14 6 -29 9 -34 6 -5
-3 -11 -2 -14 3 -3 5 56 8 131 7 134 -2 161 7 53 18 -30 4 -73 13 -95 21 l-40
15 52 0 c60 1 86 -7 76 -23 -5 -8 -3 -8 8 0 10 9 27 8 64 -1 28 -7 61 -12 75
-11 14 1 30 0 35 -3 18 -10 35 -10 29 0 -3 5 0 9 7 9 8 0 5 7 -6 20 -10 11
-22 17 -28 13 -6 -3 -7 -1 -3 5 4 8 17 6 43 -4 22 -10 38 -12 42 -6 3 5 40 9
81 7 41 -1 69 -1 63 2 -7 3 -13 8 -13 12 0 5 23 4 51 -1 28 -5 57 -7 65 -4 8
3 14 1 14 -4 0 -6 -5 -10 -11 -10 -5 0 -7 -6 -3 -12 6 -10 4 -10 -7 -1 -7 7
-18 13 -23 13 -6 -1 0 -10 14 -21 l25 -21 5 23 c5 20 11 23 35 21 35 -4 29 6
-6 13 -13 3 -25 9 -27 15 -2 5 -8 10 -13 10 -6 0 -7 -5 -3 -11 3 -6 -9 -3 -27
7 -19 10 -38 17 -42 16 -5 -1 -6 2 -2 8 5 8 11 8 20 0 8 -7 20 -8 26 -4 8 4 9
3 5 -4 -4 -7 -2 -12 3 -12 6 0 11 5 11 11 0 7 10 5 25 -5 13 -9 33 -16 45 -16
11 0 20 -4 20 -8 0 -5 16 -14 35 -22 19 -8 35 -17 35 -20 0 -4 16 -11 35 -17
20 -6 35 -7 35 -2 0 5 -7 9 -16 9 -9 0 -12 5 -8 12 4 7 3 8 -4 4 -15 -9 -15 5
1 24 16 21 57 23 57 4 0 -8 -4 -13 -9 -9 -5 3 -12 2 -15 -3 -2 -4 12 -9 32
-10 21 -2 43 -10 50 -20 7 -9 22 -27 32 -40 11 -12 20 -24 20 -27 0 -10 5 -9
25 4 14 8 15 11 3 7 -18 -5 -43 18 -34 32 3 6 -1 15 -9 22 -21 18 -15 66 10
68 13 1 16 -1 7 -7 -7 -4 -10 -16 -6 -27 5 -16 4 -16 -5 -4 -9 13 -11 13 -11
-1 0 -24 10 -29 34 -18 20 10 20 10 2 -5 -11 -9 -15 -16 -8 -16 6 0 9 -6 6
-14 -4 -10 1 -12 19 -9 14 3 28 0 31 -6 4 -6 2 -11 -4 -11 -6 0 -8 -5 -4 -11
5 -8 10 -7 16 4 7 13 14 14 34 7 13 -5 28 -9 32 -9 19 3 23 -2 12 -16 -11 -13
-10 -14 2 -10 8 3 34 2 57 -4 35 -8 40 -7 30 5 -6 8 -14 12 -18 10 -3 -2 -15
1 -26 5 -18 9 -18 9 3 5 12 -2 22 0 22 4 0 5 -10 10 -23 12 -21 3 -22 5 -9 28
13 24 14 24 9 2 -4 -18 -2 -22 9 -18 8 3 14 2 14 -3 0 -9 61 -22 123 -25 20
-2 37 1 37 5 0 3 9 9 19 12 14 3 18 11 14 26 -6 23 -23 29 -23 9 0 -9 -4 -8
-10 2 -5 8 -7 23 -4 33 3 10 -1 20 -12 24 -15 6 -15 7 2 20 16 12 17 15 4 23
-8 5 -11 10 -6 10 5 0 4 6 -2 13 -12 15 -7 66 7 80 14 14 14 30 1 22 -6 -3 -7
1 -4 9 4 10 -1 18 -10 22 -15 6 -14 8 4 21 11 8 18 19 15 24 -3 5 0 6 8 3 8
-3 18 0 23 7 4 7 3 10 -4 5 -6 -4 -10 1 -9 13 1 16 4 18 22 9 18 -10 19 -10 6
6 -8 9 -11 19 -7 23 3 3 6 1 6 -6 0 -8 8 -10 23 -7 12 3 16 3 10 0 -7 -3 -13
-10 -13 -15 0 -6 5 -7 12 -3 8 5 9 2 5 -10 -4 -11 -3 -16 4 -14 6 2 27 -11 45
-29 19 -18 41 -33 49 -33 8 0 15 -4 15 -10 0 -5 5 -10 10 -10 6 0 29 -9 53
-19 23 -11 74 -22 114 -25 76 -6 123 -21 119 -40 -2 -6 -1 -8 1 -3 9 15 33 6
33 -13 0 -30 1 -34 12 -47 5 -7 7 -16 4 -22 -3 -5 3 -7 14 -4 11 3 20 9 20 13
0 4 7 11 16 14 14 5 15 4 5 -8 -6 -7 -9 -20 -6 -28 6 -16 -30 -32 -47 -21 -15
8 -107 9 -102 1 10 -16 -9 -8 -23 10 -13 15 -13 15 -7 -8 6 -22 5 -23 -10 -11
-9 7 -16 9 -16 3 0 -5 -14 -12 -31 -16 -16 -3 -37 -13 -45 -21 -9 -8 -25 -15
-37 -16 -21 0 -21 -1 2 -10 l24 -9 -22 -19 c-29 -25 -27 -51 3 -51 13 0 26 -4
28 -10 2 -5 25 -12 53 -16 59 -7 65 -10 65 -35 0 -10 5 -19 11 -19 5 0 8 4 5
8 -3 5 1 9 9 9 8 0 13 -5 12 -11 -2 -12 1 -12 48 -1 29 7 29 7 10 -8 l-20 -16
20 3 c11 2 30 -1 43 -5 15 -6 21 -5 17 1 -3 6 -1 10 5 10 6 0 19 8 28 17 16
16 17 15 21 -2 2 -14 5 -15 12 -4 8 12 11 12 19 -1 9 -13 10 -13 11 0 1 8 1
22 0 30 0 10 1 11 5 3 7 -15 34 -17 34 -3 0 6 16 10 35 10 26 0 43 7 61 27
l26 28 -8 -29 c-5 -21 -4 -27 5 -22 6 4 11 2 11 -3 0 -6 4 -11 9 -11 5 0 9 18
9 40 0 22 4 45 8 51 3 6 8 34 10 61 4 62 23 79 70 66 26 -7 43 -4 89 17 47 22
69 26 134 24 73 -2 121 10 121 30 0 9 116 81 130 81 5 0 14 -9 19 -19 14 -26
-6 -64 -63 -120 -25 -24 -43 -48 -40 -53 3 -5 12 -4 19 2 9 7 15 8 19 1 4 -6
13 -8 20 -5 7 3 16 -2 19 -10 4 -9 2 -16 -3 -16 -6 0 -10 -7 -10 -15 0 -8 -5
-15 -12 -15 -6 0 -9 -3 -5 -6 3 -4 -1 -13 -9 -22 -29 -29 7 -31 60 -3 45 23
95 61 81 61 -3 0 4 11 17 24 32 33 58 69 58 78 0 4 14 14 30 23 l30 16 0 -35
c0 -35 -10 -59 -45 -111 -12 -17 -27 -42 -35 -58 -7 -15 -17 -27 -22 -27 -4 0
-8 -7 -8 -15 0 -8 -4 -15 -10 -15 -5 0 -10 -6 -10 -14 0 -8 -22 -36 -48 -63
-27 -26 -56 -60 -65 -75 -10 -16 -25 -28 -35 -28 -9 0 -42 -16 -72 -35 -70
-44 -135 -76 -235 -116 -73 -30 -93 -33 -235 -40 -85 -5 -186 -11 -225 -15
-38 -3 -78 -6 -87 -7 -10 -1 -18 -5 -18 -9 0 -4 -13 -8 -28 -8 -15 0 -32 -4
-37 -9 -42 -37 -729 -62 -835 -29 -19 6 -80 14 -135 19 -223 18 -315 35 -485
89 -68 22 -132 40 -142 40 -21 0 -186 56 -202 69 -6 5 -78 28 -161 51 -82 23
-162 51 -178 61 -15 11 -60 28 -100 39 -98 26 -127 35 -163 54 -17 9 -69 23
-115 32 -46 8 -107 26 -135 39 -27 13 -81 29 -118 36 -53 10 -75 20 -102 46
-40 38 -67 46 -141 46 -29 0 -50 4 -47 8 3 5 -5 9 -16 9 -25 0 -73 34 -62 44
3 4 -1 4 -11 0 -9 -3 -17 -2 -17 4 0 14 -36 22 -48 10 -6 -6 -12 -5 -17 3 -5
8 -4 10 3 5 7 -4 12 -2 12 4 0 7 -12 9 -30 6 -17 -2 -28 0 -24 5 3 5 -2 9 -10
9 -9 0 -16 6 -16 13 0 8 -4 7 -10 -3 -8 -12 -10 -12 -10 -1 0 11 -3 11 -17 0
-9 -8 -14 -9 -10 -3 4 7 0 15 -9 18 -10 4 -13 2 -9 -7 4 -6 0 -4 -8 5 -8 10
-16 16 -18 14 -9 -8 -60 -16 -56 -9 3 4 -6 16 -19 26 -13 10 -24 13 -24 7 0
-5 5 -10 12 -10 6 0 8 -3 5 -7 -4 -3 -15 1 -24 9 -22 19 -56 32 -48 18 10 -16
-28 1 -52 23 -22 19 -23 19 -50 2 l-28 -18 19 21 c18 20 18 21 -2 19 -11 0
-18 -6 -14 -12 3 -5 -1 -4 -10 2 -8 7 -19 9 -23 5 -5 -4 -5 2 -2 13 7 20 7 20
-8 1 -13 -17 -15 -17 -15 -4 0 9 -4 20 -10 23 -5 3 -7 0 -4 -8 3 -8 0 -18 -6
-22 -6 -3 -10 -3 -9 2 1 4 1 15 0 23 -1 13 -2 13 -11 0 -8 -12 -10 -10 -11 10
-1 15 -3 19 -6 9 -5 -22 -51 -32 -49 -11 0 8 -5 17 -13 20 -9 3 -11 0 -6 -7 5
-9 2 -9 -13 0 -12 7 -20 15 -19 18 1 4 -3 6 -8 6 -6 0 -9 -6 -9 -12 1 -9 -3
-10 -17 -2 -11 5 -19 12 -19 15 0 3 4 2 10 -1 6 -3 7 1 4 9 -5 14 -8 13 -23
-2 -9 -10 -11 -11 -6 -3 8 12 5 13 -18 9 -15 -3 -30 -1 -33 4 -3 4 -2 7 3 6 4
-2 8 2 8 7 0 6 -4 9 -9 7 -5 -2 -4 4 3 12 11 13 10 15 -8 11 -13 -2 -21 1 -20
8 1 7 1 19 0 27 -1 13 -2 13 -11 0 -6 -10 -10 -11 -10 -2 0 6 -9 12 -20 12
-11 0 -19 -3 -17 -8 1 -4 -8 -20 -20 -36 -13 -16 -23 -25 -23 -22 0 4 -18 -11
-40 -33 -22 -22 -40 -37 -40 -33 -1 4 -7 -4 -15 -18 -8 -14 -14 -21 -15 -15 0
12 -88 -123 -97 -148 -4 -15 -8 -16 -14 -5 -7 11 -9 11 -9 0 0 -17 -28 -46
-46 -48 -26 -4 -40 41 -21 65 10 12 9 13 -2 6 -9 -5 -7 3 6 21 28 41 37 80 18
88 -8 3 -15 2 -15 -2 0 -4 -15 -16 -32 -27 -18 -10 -51 -33 -73 -51 -27 -22
-57 -35 -85 -39 -25 -4 -40 -3 -35 2 6 4 11 16 13 27 2 10 19 41 39 68 28 40
32 52 21 60 -19 13 -73 3 -146 -27 -58 -24 -106 -36 -201 -51 -35 -6 -104 -61
-95 -75 3 -5 -1 -9 -8 -9 -7 0 -23 -3 -35 -6 -17 -5 -23 -2 -23 10 0 10 -4 15
-9 12 -14 -9 -19 43 -8 80 23 74 101 124 220 140 54 7 211 55 258 80 52 27 34
45 -66 65 -96 20 -135 35 -135 54 0 7 -7 19 -17 26 -15 13 -15 12 -2 -8 18
-29 4 -41 -21 -18 -16 14 -18 21 -8 27 9 6 5 8 -12 6 -17 -2 -24 1 -22 11 2 9
-4 12 -18 8 -17 -4 -20 -2 -16 10 5 13 4 14 -9 3 -12 -10 -15 -9 -15 6 0 15
-2 16 -9 5 -7 -11 -11 -10 -20 5 -8 14 -11 15 -11 4 0 -12 -3 -11 -11 3 -8 14
-14 16 -25 6 -11 -9 -19 -8 -34 6 -15 14 -20 15 -20 4 0 -12 -2 -12 -9 0 -5 8
-16 11 -30 6 -16 -5 -21 -2 -21 10 0 14 -4 13 -21 -6 -14 -17 -19 -19 -15 -7
3 12 1 15 -10 11 -8 -3 -13 -12 -10 -20 4 -11 1 -11 -14 -3 -11 6 -20 13 -20
16 0 3 5 2 11 -2 8 -4 8 0 0 15 -13 24 -23 29 -15 7 4 -11 0 -13 -15 -9 -13 3
-21 1 -21 -6 0 -7 4 -10 9 -6 5 3 13 0 17 -7 4 -7 4 -10 -1 -6 -4 4 -15 2 -23
-5 -9 -6 -13 -7 -10 -2 3 6 0 15 -7 22 -10 10 -14 9 -19 -2 -3 -8 -10 -15 -16
-15 -6 0 -8 5 -4 12 5 7 3 8 -6 3 -10 -6 -10 -11 3 -20 9 -7 14 -15 10 -18 -3
-4 -12 -2 -20 4 -9 9 -13 8 -13 0 0 -6 -10 -11 -22 -11 -19 0 -20 -2 -8 -10 9
-6 10 -10 3 -10 -6 0 -20 -3 -30 -6 -15 -5 -15 -4 -3 5 9 7 11 11 3 11 -7 0
-16 -7 -21 -16 -5 -9 -21 -16 -35 -16 -15 0 -32 -7 -38 -14 -6 -8 -17 -14 -23
-14 -6 0 -4 5 4 10 10 7 11 10 2 10 -7 0 -15 -7 -18 -15 -4 -8 -11 -12 -18 -9
-6 3 -3 -1 7 -9 16 -13 16 -15 2 -21 -9 -3 -13 -2 -10 4 3 6 1 10 -4 10 -6 0
-11 -8 -12 -17 -1 -12 -4 -10 -9 7 -7 21 -8 22 -9 5 -2 -21 -31 -67 -31 -48 0
7 4 14 9 18 6 3 9 14 8 25 -1 10 -5 16 -9 14 -5 -3 -6 -9 -4 -13 7 -11 -33
-53 -44 -46 -4 3 -10 2 -13 -2 -2 -5 -2 -3 -1 4 2 7 -3 10 -11 7 -8 -3 -11
-12 -9 -19 3 -7 1 -16 -5 -20 -7 -4 -8 0 -4 11 5 12 3 15 -6 9 -10 -6 -12 -2
-7 16 l7 24 -14 -23 c-7 -12 -17 -19 -22 -15 -6 4 -2 -2 8 -14 12 -14 15 -23
7 -28 -6 -4 -9 -1 -8 7 2 8 -5 12 -19 10 -14 -2 -23 2 -23 10 0 10 -3 9 -9 -1
-6 -9 -6 -22 0 -32 5 -10 5 -20 1 -23 -5 -3 -9 1 -10 9 -1 8 -3 22 -4 30 -2
17 -14 20 -23 5 -3 -5 -2 -10 3 -10 5 0 9 -7 9 -15 0 -8 -4 -12 -8 -10 -3 3
-9 -5 -12 -16 -4 -15 -2 -19 9 -15 9 3 12 1 9 -4 -8 -12 -35 -13 -35 -1 0 5
-7 11 -15 15 -11 4 -14 0 -12 -17 2 -12 2 -15 -1 -7 -4 12 -6 11 -13 -5 -6
-17 -7 -16 -6 8 1 15 4 27 7 27 4 0 6 13 6 29 0 22 -3 28 -15 23 -10 -4 -11
-7 -3 -10 7 -2 12 -8 12 -13 0 -6 -4 -7 -10 -4 -6 4 -7 -1 -3 -12 6 -16 5 -17
-12 -3 -17 14 -18 14 -6 -8 11 -21 10 -26 -8 -43 -17 -16 -21 -17 -21 -4 0 8
-5 15 -11 15 -5 0 -7 6 -3 13 5 9 3 9 -7 -1 -12 -11 -12 -14 1 -23 12 -9 10
-10 -8 -6 -24 6 -52 -15 -52 -39 0 -8 5 -14 12 -14 17 0 4 -10 -21 -15 -11 -2
-21 1 -21 7 0 5 8 7 18 4 16 -6 16 -5 0 7 -10 8 -14 18 -10 22 4 5 1 5 -6 1
-7 -4 -10 -11 -8 -14 2 -4 -2 -18 -11 -32 l-14 -25 5 24 c4 18 2 21 -6 13 -8
-8 -16 -8 -23 -2 -8 7 -12 5 -12 -5 0 -7 3 -14 6 -13 18 2 20 -3 9 -16 -7 -8
-15 -10 -18 -6 -3 5 -17 0 -30 -12 -14 -11 -19 -17 -12 -13 6 3 12 1 12 -4 0
-6 -9 -11 -20 -11 -11 0 -20 -4 -20 -9 0 -5 10 -7 23 -5 12 2 15 1 7 -2 -8 -4
-18 -12 -22 -17 -4 -6 -10 1 -13 16 -10 37 -27 34 -20 -4 4 -19 2 -28 -5 -24
-6 3 -10 -3 -10 -16 0 -22 0 -22 23 -3 22 18 22 18 4 -1 -10 -11 -30 -21 -45
-21 -44 -3 -44 -3 -38 -21 5 -15 3 -14 -9 2 -9 11 -21 20 -28 21 -7 0 -19 2
-28 2 -25 3 -31 30 -14 62 8 16 15 46 15 68 0 25 10 54 30 85 35 56 35 57 13
58 -14 0 -15 2 -3 6 20 8 44 33 32 33 -6 0 -13 8 -16 17 -4 10 -4 14 0 10 4
-4 13 1 21 11 10 13 13 14 11 2 -2 -8 -7 -19 -13 -23 -6 -5 -4 -7 5 -4 8 2 15
9 15 14 0 6 3 15 7 19 5 4 8 2 8 -5 0 -7 5 -9 10 -6 17 11 11 24 -10 20 -11
-2 -22 0 -25 6 -4 5 1 9 10 9 9 0 13 5 10 10 -4 6 -3 10 2 9 19 -3 33 2 33 12
0 5 -5 7 -12 3 -6 -4 -3 4 8 18 10 15 20 22 22 18 2 -5 10 -6 18 -3 8 3 14 0
14 -7 0 -6 -4 -9 -8 -6 -5 3 -9 -1 -9 -9 0 -10 4 -12 12 -5 7 5 14 7 18 4 8
-8 3 18 -7 34 -5 8 -3 12 6 10 7 -2 12 3 10 10 -1 8 1 11 6 8 4 -2 14 -1 22 5
13 7 13 9 0 10 -8 1 -19 1 -23 0 -5 -1 -6 3 -2 9 7 12 40 -3 49 -22 3 -7 4 -4
3 7 -1 11 -6 23 -12 27 -6 5 -3 8 7 8 21 0 32 16 17 26 -7 4 -9 3 -6 -3 3 -5
0 -10 -8 -10 -11 0 -12 4 -4 13 6 7 18 11 28 9 12 -2 18 2 17 13 0 9 8 21 20
26 31 16 56 45 49 56 -3 5 0 7 8 4 8 -3 19 1 25 9 7 8 22 12 35 10 16 -3 32 4
53 24 42 41 80 64 98 57 9 -3 16 -2 16 3 0 5 28 10 63 10 34 1 96 6 137 12
115 16 301 -1 337 -31 7 -5 16 -7 22 -4 5 4 16 0 24 -8 8 -8 17 -13 20 -10 3
3 24 0 46 -6 65 -17 102 -5 134 45 15 23 27 50 27 59 0 9 3 16 8 16 4 1 21 12
37 26 17 13 23 22 14 19 -10 -4 -20 -2 -23 4 -5 7 8 9 36 7 24 -2 37 -2 31 1
-7 3 -13 9 -13 14 0 10 59 9 75 -1 6 -4 26 -10 45 -13 69 -12 141 -32 165 -45
5 -4 29 -6 52 -7 31 0 43 4 46 16 3 12 14 16 38 14 19 -2 46 -4 62 -4 18 -1
27 -6 27 -17 0 -10 6 -14 14 -11 10 4 12 0 8 -15 -4 -16 -2 -19 9 -13 12 8 12
6 0 -8 -7 -9 -10 -17 -5 -17 4 0 0 -6 -9 -12 -9 -7 -15 -22 -12 -33 2 -11 4
-23 4 -27 1 -5 9 -8 19 -8 9 0 26 -7 36 -15 11 -8 28 -15 38 -15 10 0 18 -7
18 -15 0 -17 16 -20 25 -6 3 6 17 4 33 -5 15 -7 39 -14 55 -14 17 0 27 -5 27
-15 0 -20 53 -20 69 -1 7 8 14 29 16 47 3 18 8 35 12 38 5 3 16 18 25 33 31
48 93 40 117 -14 16 -35 135 -155 163 -164 58 -18 155 74 139 133 -7 27 -66
67 -83 57 -4 -2 -10 5 -13 16 -10 31 -35 6 -35 -34 0 -17 -4 -36 -8 -43 -11
-17 -64 -3 -69 18 -3 10 -9 17 -13 14 -8 -5 -28 78 -34 140 -2 22 -18 71 -35
109 -22 50 -28 73 -21 86 14 26 -10 56 -36 43 -10 -5 -36 -11 -56 -12 -33 -2
-40 2 -58 31 -12 21 -20 50 -20 80 0 26 -4 50 -10 53 -5 3 -10 15 -10 25 0 10
-6 25 -13 32 -8 7 -16 24 -20 38 -3 14 -16 37 -29 53 -12 15 -23 37 -25 49 -2
12 -12 32 -23 43 -11 12 -20 27 -20 33 0 7 -4 12 -8 12 -4 0 -16 15 -27 33
-10 17 -21 34 -24 37 -3 3 -35 38 -70 78 -34 39 -68 72 -73 72 -6 0 -47 37
-91 81 -102 102 -119 113 -157 106 -40 -9 -107 -54 -113 -78 -3 -13 -14 -19
-31 -19 -14 0 -26 -4 -26 -10 0 -15 -32 0 -65 31 -18 17 -42 29 -60 30 -32 1
-218 -59 -223 -73 -2 -4 -15 -5 -28 -2 -15 4 -24 2 -24 -5 0 -6 -3 -10 -7 -9
-8 3 -53 -38 -53 -47 0 -3 0 -11 0 -17 0 -16 -73 -52 -91 -46 -8 3 -20 -1 -27
-9 -21 -21 -35 -15 -28 12 5 18 2 25 -9 25 -17 0 -18 2 -9 24 3 9 9 14 13 11
4 -2 7 6 7 18 -1 13 4 21 12 19 6 -1 12 8 12 20 0 12 3 19 6 16 14 -14 51 43
58 87 5 42 3 52 -21 84 -16 19 -37 51 -49 71 -19 32 -19 38 -6 77 13 42 13 43
-27 118 -22 42 -38 82 -35 90 3 7 1 22 -5 33 -8 15 -8 22 2 26 8 3 7 8 -6 16
-9 6 -15 15 -12 20 3 4 -10 22 -29 38 -19 17 -32 33 -28 37 4 4 0 12 -8 18
-19 15 -22 34 -22 121 0 42 4 71 11 76 8 4 10 17 5 33 -4 18 -2 27 5 27 8 0 9
5 1 19 -5 11 -7 27 -3 37 5 13 3 15 -8 9 -12 -8 -12 -6 0 9 20 24 20 68 2 84
-14 12 -14 13 1 8 14 -4 15 -1 6 25 -6 17 -14 26 -21 22 -8 -5 -8 -8 1 -11 7
-2 12 -8 12 -13 0 -6 -4 -8 -9 -5 -5 4 -12 1 -14 -4 -3 -6 -4 -5 -3 2 2 7 -4
19 -13 26 -14 11 -14 11 2 6 12 -4 17 -1 17 11 0 10 -5 14 -12 9 -7 -4 -5 1 4
12 16 19 16 21 -1 47 -9 15 -20 25 -22 23 -3 -3 -5 4 -6 15 -1 10 -9 26 -17
35 -9 8 -24 44 -35 80 -24 76 -19 124 12 124 11 0 17 3 14 7 -4 4 6 12 23 19
29 13 100 8 100 -6 0 -4 12 -11 28 -15 15 -4 22 -9 16 -12 -6 -2 5 -21 25 -41
20 -21 50 -55 66 -76 63 -81 134 -161 143 -161 13 0 66 -40 103 -77 21 -21 42
-38 46 -38 5 0 19 -14 33 -31 30 -37 102 -73 131 -66 21 6 221 -61 227 -75 2
-4 13 -8 25 -8 26 0 96 -24 141 -47 36 -19 106 -25 103 -10 -3 15 76 33 81 18
2 -6 10 -11 18 -11 8 0 14 -7 14 -15 0 -8 4 -15 9 -15 4 0 27 -29 50 -65 23
-36 45 -66 49 -67 26 -6 62 -3 62 4 0 5 5 6 10 3 6 -4 10 8 11 27 2 52 -1 68
-21 103 -10 18 -22 41 -28 51 -14 27 -32 88 -32 107 0 9 -5 17 -11 17 -7 0 -8
11 -4 30 5 24 3 30 -10 30 -9 0 -13 5 -10 10 3 6 0 10 -7 10 -9 0 -9 3 2 10
11 7 20 4 32 -13 10 -12 16 -28 13 -34 -2 -7 0 -13 6 -13 6 0 9 -6 7 -12 -3
-7 0 -18 6 -26 25 -30 32 -39 44 -60 6 -12 12 -31 12 -41 0 -11 5 -23 10 -26
6 -3 10 -15 10 -26 0 -10 4 -19 10 -19 5 0 13 -12 16 -27 9 -37 31 -61 75 -84
35 -17 37 -17 51 -1 8 9 16 36 17 59 2 42 -30 201 -51 256 -9 23 -8 31 3 38
12 7 12 9 -1 9 -14 0 -28 16 -55 65 -6 11 -23 39 -38 62 -15 24 -27 48 -27 56
0 7 -7 23 -16 35 -8 12 -13 22 -9 22 3 0 -17 22 -44 49 -27 27 -57 60 -66 74
-9 14 -37 35 -63 47 -26 12 -63 35 -82 50 -20 16 -59 36 -87 45 -30 10 -53 24
-56 33 -5 23 15 62 47 91 22 20 24 30 19 66 -5 37 -2 44 21 62 29 23 70 20
101 -7z m5427 -612 c25 -25 29 -36 30 -80 1 -15 6 -28 12 -28 12 -1 -31 -40
-44 -40 -4 0 -10 8 -14 18 -27 78 -32 102 -25 113 4 7 3 19 -3 26 -19 23 19
15 44 -9z m-6635 -164 c-3 -3 -12 -4 -19 -1 -8 3 -5 6 6 6 11 1 17 -2 13 -5z
m6501 -357 c7 -8 6 -17 -3 -30 -11 -15 -15 -16 -22 -4 -4 8 -15 17 -23 20 -12
4 -11 6 3 6 9 1 17 6 17 11 0 14 15 13 28 -3z m-44 -42 c-4 -10 0 -15 11 -15
9 0 14 -4 10 -10 -3 -5 -12 -7 -20 -3 -10 3 -15 -1 -15 -15 0 -27 -12 -33 -28
-16 -7 8 -9 14 -4 14 5 0 12 14 16 30 3 17 12 30 20 30 10 0 13 -6 10 -15z
m-1711 -362 c3 -5 -6 -8 -19 -8 -13 0 -24 3 -24 8 0 4 9 7 19 7 11 0 22 -3 24
-7z m-623 -51 c0 -5 -7 -9 -15 -9 -8 0 -12 4 -9 9 3 4 9 8 15 8 5 0 9 -4 9 -8z
m520 -6 c0 -3 -4 -8 -10 -11 -5 -3 -10 -1 -10 4 0 6 5 11 10 11 6 0 10 -2 10
-4z m-450 -236 c14 -11 36 -20 50 -20 20 0 22 -2 10 -10 -13 -8 -13 -10 2 -10
9 0 20 -9 23 -20 3 -11 11 -20 16 -20 6 0 7 4 4 10 -3 6 1 7 9 4 9 -3 16 -13
16 -21 0 -9 6 -13 15 -9 8 3 14 0 12 -7 -1 -7 7 -11 21 -10 13 2 25 -4 28 -12
4 -8 16 -15 28 -16 18 0 19 -1 3 -7 -15 -7 -16 -9 -2 -28 8 -12 29 -29 48 -37
30 -15 33 -20 29 -49 -5 -35 -55 -90 -75 -82 -14 5 -15 -55 -2 -78 6 -10 5
-11 -6 0 -7 6 -24 12 -37 12 -13 0 -47 11 -75 24 -29 13 -72 29 -97 35 -25 7
-56 20 -69 28 -13 8 -21 11 -17 5 3 -5 -3 -12 -14 -15 -11 -3 -23 -1 -26 4 -3
5 -10 7 -15 3 -5 -3 -25 -7 -43 -9 -18 -1 -43 -6 -55 -10 -27 -8 -28 11 0 26
12 6 19 7 15 1 -4 -6 3 -8 16 -4 12 3 17 7 10 10 -6 2 -12 8 -12 13 0 6 5 7
10 4 6 -3 10 -2 10 3 0 17 -13 22 -27 10 -12 -9 -13 -7 -8 13 4 18 0 27 -16
37 -11 8 -18 9 -15 3 4 -5 2 -12 -3 -16 -6 -3 -7 -13 -4 -23 4 -11 -1 -9 -15
7 -13 14 -22 18 -22 11 0 -7 -2 -11 -5 -8 -8 8 6 39 15 33 5 -3 12 0 16 6 8
14 -17 31 -31 20 -15 -12 -45 -10 -45 3 0 6 -5 3 -11 -7 -6 -9 -15 -15 -20
-11 -14 8 -6 -40 10 -59 10 -13 8 -18 -13 -32 -28 -18 -61 -13 -70 11 -3 8 -2
13 3 10 8 -5 31 44 31 65 0 16 -30 9 -60 -13 -25 -18 -32 -20 -43 -8 -10 10
-9 12 5 7 12 -4 15 -2 11 8 -3 9 12 31 38 55 24 22 39 40 34 40 -6 0 -3 4 5
10 12 8 12 10 -3 16 -9 3 -14 10 -11 15 8 14 26 11 18 -3 -4 -8 -3 -10 2 -5 5
5 9 14 9 20 0 7 6 13 13 13 6 1 17 2 22 3 6 0 10 9 10 18 0 9 3 14 6 10 4 -3
19 0 35 8 15 8 37 15 49 15 11 0 20 4 20 9 0 4 11 6 25 3 14 -2 25 -7 25 -11
0 -4 9 -7 20 -7 11 0 20 3 20 6 0 3 20 6 45 6 79 2 82 3 65 14 -13 9 -13 10 0
10 8 0 26 -9 40 -20z m25 10 c4 -6 11 -7 17 -4 7 4 8 2 4 -4 -5 -9 -13 -9 -27
-2 -10 6 -19 13 -19 15 0 9 19 5 25 -5z m-705 -80 c0 -5 -5 -10 -11 -10 -5 0
-7 5 -4 10 3 6 8 10 11 10 2 0 4 -4 4 -10z m971 -77 c13 -16 12 -17 -3 -4 -10
7 -18 15 -18 17 0 8 8 3 21 -13z m116 -29 c-9 -9 -28 6 -21 18 4 6 10 6 17 -1
6 -6 8 -13 4 -17z m23 -21 c0 -10 -20 -40 -20 -31 0 3 -3 13 -6 22 -4 11 -1
16 10 16 9 0 16 -3 16 -7z m-739 -50 c-11 -4 -11 -7 0 -14 18 -11 4 -23 -17
-15 -13 5 -14 9 -4 21 7 8 18 15 24 14 6 0 5 -3 -3 -6z m-121 -7 c0 -3 -4 -8
-10 -11 -5 -3 -10 -1 -10 4 0 6 5 11 10 11 6 0 10 -2 10 -4z m-299 -29 c-10
-9 -11 -8 -5 6 3 10 9 15 12 12 3 -3 0 -11 -7 -18z m1066 -50 c12 -40 7 -63
-11 -44 -14 14 -20 77 -8 77 5 0 13 -15 19 -33z m-592 -12 c0 -5 -11 -12 -24
-13 -13 -2 -21 0 -17 6 4 6 -3 8 -16 4 -15 -4 -19 -2 -14 7 9 14 71 11 71 -4z
m-2958 -27 c10 -17 4 -51 -11 -60 -39 -25 -104 23 -76 57 15 18 76 20 87 3z
m2913 2 c0 -5 -4 -10 -10 -10 -5 0 -10 5 -10 10 0 6 5 10 10 10 6 0 10 -4 10
-10z m-444 -132 c0 -10 -4 -18 -8 -18 -4 0 -8 -9 -8 -19 0 -11 -4 -23 -10 -26
-5 -3 -10 -15 -10 -26 0 -10 -3 -19 -7 -19 -13 0 -14 73 -2 116 10 39 12 41
28 25 9 -9 17 -24 17 -33z m1671 -60 c-3 -8 -6 -5 -6 6 -1 11 2 17 5 13 3 -3
4 -12 1 -19z m25 -90 c-7 -7 -12 -8 -12 -2 0 14 12 26 19 19 2 -3 -1 -11 -7
-17z m61 -34 c4 -1 12 -2 17 -3 6 0 10 -5 10 -11 0 -17 -26 -11 -46 12 -11 13
-13 18 -4 12 8 -5 18 -9 23 -10z m-2091 -29 c15 -34 -5 -81 -35 -82 -27 -1
-64 -10 -77 -18 -6 -3 -10 1 -10 10 0 9 4 14 9 11 5 -3 11 8 15 24 6 34 47 80
71 80 8 0 20 -11 27 -25z m-2672 -15 c0 -5 -5 -10 -11 -10 -5 0 -7 5 -4 10 3
6 8 10 11 10 2 0 4 -4 4 -10z m2874 -40 l7 -25 -15 25 c-17 28 -21 50 -7 35 5
-6 12 -21 15 -35z m1616 37 c0 -1 -4 -17 -9 -35 -7 -24 -7 -31 2 -25 19 12 36
12 44 1 4 -7 -2 -9 -16 -5 -14 3 -26 -1 -35 -15 -21 -30 -31 -3 -16 43 7 21
17 39 22 39 4 0 8 -1 8 -3z m-4445 -17 c3 -5 -1 -10 -9 -10 -9 0 -16 5 -16 10
0 6 4 10 9 10 6 0 13 -4 16 -10z m4715 6 c0 -11 -19 -15 -25 -6 -3 5 1 10 9
10 9 0 16 -2 16 -4z m-314 -22 c-3 -9 -6 -18 -6 -20 0 -2 -4 -4 -9 -4 -5 0 -7
9 -4 20 3 11 10 20 15 20 6 0 7 -7 4 -16z m-1619 -16 c-3 -8 -6 -5 -6 6 -1 11
2 17 5 13 3 -3 4 -12 1 -19z m-2772 2 c-7 -12 -55 -14 -55 -2 0 4 14 9 31 10
19 2 28 -2 24 -8z m2957 -12 c-7 -7 -12 -8 -12 -2 0 14 12 26 19 19 2 -3 -1
-11 -7 -17z m1753 2 c-3 -5 -14 -10 -23 -10 -15 0 -15 2 -2 10 20 13 33 13 25
0z m-1865 -31 c0 -6 -4 -7 -10 -4 -5 3 -10 11 -10 16 0 6 5 7 10 4 6 -3 10
-11 10 -16z m1298 12 c10 -6 7 -10 -11 -13 -18 -4 -24 -1 -20 9 6 15 13 16 31
4z m-36 -49 c-8 -2 -9 -9 -2 -22 7 -13 6 -20 -6 -24 -8 -3 -12 -11 -8 -17 4
-8 3 -9 -4 -5 -7 4 -12 3 -12 -3 0 -5 5 -13 11 -17 8 -4 7 -9 -2 -15 -12 -8
-12 -10 0 -18 11 -7 11 -9 0 -14 -11 -4 -12 -7 -2 -18 11 -11 15 -9 27 7 14
19 15 18 13 -3 -1 -12 -7 -25 -14 -27 -7 -3 -13 -10 -13 -16 0 -22 -26 -38
-53 -33 -15 3 -27 1 -27 -5 0 -5 -7 -13 -16 -16 -9 -4 -13 -2 -8 5 5 8 1 8
-14 0 -28 -15 -48 11 -43 56 2 20 122 143 134 136 6 -3 7 -1 3 5 -9 15 25 62
39 54 5 -3 4 -7 -3 -10z m-896 -29 c24 -21 44 -45 44 -55 0 -23 -3 -23 -50 7
-22 14 -42 36 -46 50 -3 14 -11 22 -17 18 -6 -3 -7 -1 -3 5 11 19 24 14 72
-25z m-830 15 c7 -11 -86 -99 -98 -92 -4 3 -47 9 -94 14 -64 7 -90 14 -100 27
-7 10 -14 21 -14 26 0 4 33 7 74 7 41 0 89 6 107 14 39 16 116 19 125 4z
m3679 2 c3 -5 1 -10 -4 -10 -6 0 -11 5 -11 10 0 6 2 10 4 10 3 0 8 -4 11 -10z
m-11 -23 c21 4 25 2 20 -11 -3 -9 -11 -16 -18 -17 -6 0 -21 -2 -33 -3 -12 -1
-20 1 -18 5 3 4 -4 9 -15 12 -11 3 -20 10 -20 15 0 7 10 8 29 2 15 -4 40 -5
55 -3z m-2167 -27 c1 -11 -3 -20 -8 -20 -6 0 -22 -14 -36 -30 -13 -17 -29 -28
-34 -24 -5 3 -17 -8 -27 -25 -11 -20 -25 -31 -39 -31 -12 0 -25 -5 -28 -10 -4
-6 -15 -8 -24 -5 -10 3 -24 -1 -31 -10 -13 -16 -35 -21 -25 -6 3 6 -2 14 -11
19 -14 8 -14 11 -1 23 56 55 95 79 126 79 12 0 21 5 21 11 0 5 5 7 10 4 6 -3
10 -2 10 3 0 12 49 34 60 27 5 -3 11 -1 15 5 10 16 21 12 22 -10z m-387 -5
c20 -24 4 -45 -34 -45 -38 0 -50 11 -42 38 8 23 59 27 76 7z m1313 -200 c-3
-9 -8 -14 -10 -11 -3 3 -2 9 2 15 9 16 15 13 8 -4z m-2049 -34 l28 -29 -25 2
c-14 0 -23 5 -20 9 3 5 -3 17 -13 28 -28 31 -1 22 30 -10z m2311 19 c3 -5 -1
-10 -10 -10 -9 0 -13 5 -10 10 3 6 8 10 10 10 2 0 7 -4 10 -10z m-2030 -10 c3
-6 -1 -7 -9 -4 -18 7 -21 14 -7 14 6 0 13 -4 16 -10z m1288 -20 c-7 -27 -18
-33 -33 -15 -6 7 -19 11 -28 8 -12 -4 -14 -3 -7 5 6 6 21 12 35 15 14 2 28 5
32 6 3 0 4 -8 1 -19z m768 -30 c-5 -28 -8 -31 -14 -16 -4 10 -2 25 4 32 9 11
9 14 0 14 -7 0 -9 5 -5 11 12 21 23 -6 15 -41z m-364 25 c0 -10 -6 -14 -14
-10 -8 3 -20 5 -26 6 -7 0 -3 4 8 9 29 12 32 12 32 -5z m317 0 c3 -8 1 -15 -3
-15 -5 0 -11 7 -15 15 -3 8 -1 15 3 15 5 0 11 -7 15 -15z m-1990 -31 c4 -9 4
-19 1 -22 -3 -3 -5 0 -5 7 0 6 -10 16 -22 21 -23 9 -23 9 -2 9 12 1 25 -6 28
-15z m1637 -11 c13 -16 12 -17 -3 -4 -10 7 -18 15 -18 17 0 8 8 3 21 -13z
m144 7 c3 -5 1 -10 -4 -10 -6 0 -11 5 -11 10 0 6 2 10 4 10 3 0 8 -4 11 -10z
m-1775 -62 c0 -10 -3 -10 -25 -2 -13 5 -14 8 -3 15 10 7 11 9 0 9 -7 0 -10 5
-6 12 5 7 11 5 21 -7 7 -11 13 -22 13 -27z m1777 10 c-3 -8 -6 -5 -6 6 -1 11
2 17 5 13 3 -3 4 -12 1 -19z m1706 -36 c-5 -30 -43 -68 -43 -42 0 6 -4 8 -10
5 -5 -3 -2 8 8 24 9 17 19 26 20 20 2 -5 -2 -16 -8 -24 -10 -12 -9 -15 4 -15
12 0 16 10 16 48 1 31 4 42 9 32 5 -8 6 -30 4 -48z m-3569 2 c24 -24 19 -30
-6 -8 -13 10 -25 20 -27 21 -2 2 1 3 7 3 6 0 18 -7 26 -16z m1206 -24 c0 -5
-7 -10 -15 -10 -8 0 -15 5 -15 10 0 6 7 10 15 10 8 0 15 -4 15 -10z m264 -35
c-4 -8 -11 -15 -16 -15 -6 0 -5 6 2 15 7 8 14 15 16 15 2 0 1 -7 -2 -15z m122
-10 c18 -18 4 -20 -15 -2 -11 10 -13 9 -8 -6 4 -11 3 -16 -3 -12 -6 3 -10 1
-10 -5 0 -6 -4 -9 -8 -6 -4 2 -9 -4 -9 -15 -1 -10 4 -19 10 -20 26 -1 49 -8
55 -15 4 -4 -2 -4 -12 0 -19 6 -19 6 -3 -12 18 -20 14 -34 -9 -25 -9 3 -14 -1
-14 -12 0 -9 4 -13 10 -10 5 3 18 1 27 -5 15 -10 15 -11 1 -6 -9 2 -19 2 -23
-2 -7 -7 -12 -8 -41 -11 -8 0 -12 -5 -9 -11 3 -5 1 -10 -5 -10 -7 0 -9 -7 -5
-17 4 -13 3 -15 -5 -7 -6 6 -12 21 -13 33 -1 21 -2 21 -14 5 -12 -16 -13 -16
-13 -1 0 11 -6 15 -17 11 -15 -5 -15 -4 -3 4 8 6 17 9 20 7 4 -2 7 3 7 11 0
10 -7 14 -19 11 -10 -3 -16 -1 -12 4 3 5 2 15 -3 22 -4 6 -8 25 -8 40 -1 24 1
26 11 13 10 -14 13 -15 24 -1 12 14 7 20 -15 15 -23 -4 13 20 50 34 52 19 63
19 81 1z m-4826 -11 c0 -8 -5 -12 -10 -9 -6 4 -8 11 -5 16 9 14 15 11 15 -7z
m6780 10 c0 -8 -19 -13 -24 -6 -3 5 1 9 9 9 8 0 15 -2 15 -3z m-59 -33 c-6
-10 -8 -20 -6 -23 3 -3 -1 -5 -9 -5 -11 0 -12 5 -3 24 5 13 14 23 19 23 5 0 4
-8 -1 -19z m20 -4 c-10 -9 -11 -8 -5 6 3 10 9 15 12 12 3 -3 0 -11 -7 -18z
m-4559 -9 c8 -7 18 -20 21 -29 4 -13 -2 -15 -41 -12 -26 3 -66 0 -90 -5 -47
-11 -60 -3 -34 21 39 35 115 48 144 25z m3058 2 c0 -5 -2 -10 -4 -10 -3 0 -8
5 -11 10 -3 6 -1 10 4 10 6 0 11 -4 11 -10z m-2737 -44 c28 -4 31 -15 10 -36
-17 -15 -42 -20 -127 -25 -96 -6 -108 -5 -131 13 -18 14 -22 23 -14 28 17 10
199 32 225 27 11 -2 28 -5 37 -7z m-2688 -6 c3 -5 1 -10 -4 -10 -6 0 -11 5
-11 10 0 6 2 10 4 10 3 0 8 -4 11 -10z m3065 -22 c31 11 50 0 50 -30 0 -24
-30 -38 -82 -38 -28 0 -64 -11 -103 -30 -73 -36 -161 -58 -176 -43 -17 17 15
39 100 68 72 24 130 56 139 77 2 4 13 3 24 -3 13 -7 29 -7 48 -1z m1145 -18
c3 -5 1 -10 -4 -10 -6 0 -11 5 -11 10 0 6 2 10 4 10 3 0 8 -4 11 -10z m122 -4
c-18 -14 -18 -14 0 -20 10 -3 6 -4 -9 -2 -16 2 -28 -1 -28 -5 0 -5 -9 -9 -19
-9 -11 0 -21 -5 -23 -11 -2 -5 -11 -7 -21 -4 -9 4 -15 11 -12 15 3 5 -4 8 -15
7 -21 -1 -27 -12 -10 -20 6 -3 5 -4 -2 -3 -7 2 -13 8 -13 15 0 17 88 47 93 33
2 -7 14 -6 35 3 41 18 47 18 24 1z m-5127 0 c0 -2 -7 -7 -16 -10 -8 -3 -12 -2
-9 4 6 10 25 14 25 6z m5323 -22 c-7 -3 -9 -12 -6 -20 3 -8 -1 -14 -10 -14
-10 0 -15 8 -14 20 1 13 8 20 22 19 11 0 15 -3 8 -5z m-1029 -22 c3 -5 -1 -9
-9 -9 -8 0 -12 4 -9 9 3 4 7 8 9 8 2 0 6 -4 9 -8z m866 4 c0 -3 -4 -8 -10 -11
-5 -3 -10 -1 -10 4 0 6 5 11 10 11 6 0 10 -2 10 -4z m-141 -37 c-19 -12 -39
-11 -39 2 0 6 7 9 15 5 8 -3 15 -1 15 5 0 6 5 7 11 3 8 -4 7 -9 -2 -15z m261
14 c0 -3 -7 -15 -17 -25 -17 -19 -43 -24 -43 -8 0 6 7 10 15 10 8 0 14 3 14 8
-3 16 2 22 16 22 8 0 15 -3 15 -7z m-226 -64 c-27 -11 -34 -10 -34 2 0 5 4 8
9 4 5 -3 12 -1 16 5 4 6 11 7 18 3 7 -4 4 -9 -9 -14z m451 -15 c-9 -7 -14 -18
-10 -24 6 -9 2 -9 -14 -1 -28 15 -27 23 7 42 30 17 45 3 17 -17z m-328 20 c-3
-3 -12 -4 -19 -1 -8 3 -5 6 6 6 11 1 17 -2 13 -5z m208 -14 c3 -5 -1 -10 -10
-10 -9 0 -13 5 -10 10 3 6 8 10 10 10 2 0 7 -4 10 -10z m-60 -10 c3 -5 -1 -10
-9 -10 -8 0 -18 5 -21 10 -3 6 1 10 9 10 8 0 18 -4 21 -10z m-1087 -14 c-10
-7 -16 -15 -13 -18 3 -2 -2 -5 -10 -5 -10 0 -12 4 -5 12 5 7 8 14 5 16 -2 3 6
5 18 6 20 2 21 1 5 -11z m-143 -6 c3 -5 1 -10 -4 -10 -6 0 -11 5 -11 10 0 6 2
10 4 10 3 0 8 -4 11 -10z m-3785 -38 c3 -2 -7 -1 -23 3 -19 5 -27 3 -27 -6 0
-7 -3 -9 -6 -6 -4 4 -1 13 6 22 10 12 16 13 29 3 9 -7 18 -14 21 -16z m50 24
c0 -2 -8 -10 -17 -17 -16 -13 -17 -12 -4 4 13 16 21 21 21 13z m3855 -26 c-3
-5 -11 -10 -16 -10 -6 0 -7 5 -4 10 3 6 11 10 16 10 6 0 7 -4 4 -10z m1175
-20 c8 -5 11 -10 5 -10 -5 0 -17 5 -25 10 -8 5 -10 10 -5 10 6 0 17 -5 25 -10z
m-621 -4 c-2 -2 -17 -6 -34 -10 -22 -5 -26 -4 -15 4 14 9 59 15 49 6z m-2268
-33 c13 -16 12 -17 -3 -4 -17 13 -22 21 -14 21 2 0 10 -8 17 -17z m2222 -10
c-7 -2 -19 -2 -25 0 -7 3 -2 5 12 5 14 0 19 -2 13 -5z m797 -8 c0 -12 -19 -12
-23 0 -4 9 -1 12 9 8 7 -3 14 -7 14 -8z m-2850 1 c0 -3 -4 -8 -10 -11 -5 -3
-10 -1 -10 4 0 6 5 11 10 11 6 0 10 -2 10 -4z m-2536 -36 c-6 -6 -10 -3 -10
10 0 13 4 16 10 10 7 -7 7 -13 0 -20z m4690 2 c3 -5 -1 -9 -9 -9 -8 0 -12 4
-9 9 3 4 7 8 9 8 2 0 6 -4 9 -8z m75 4 c-2 -2 -15 -9 -29 -16 -23 -12 -24 -12
-11 3 7 10 20 17 29 17 8 0 13 -2 11 -4z m-496 -29 c21 13 52 11 69 -4 10 -9
24 -13 33 -10 8 4 15 3 15 -1 0 -4 9 -8 20 -8 11 0 20 4 20 8 0 4 7 4 17 1 12
-5 14 -3 8 8 -5 8 2 5 14 -5 22 -20 22 -20 15 0 -5 16 -4 16 5 4 7 -10 13 -11
19 -4 4 6 17 7 32 3 16 -4 19 -7 8 -8 -10 -1 -17 -6 -15 -12 1 -6 -4 -13 -11
-14 -7 -2 -8 -1 -2 2 5 2 7 9 4 14 -4 6 -10 6 -18 0 -22 -19 -132 -15 -221 6
-11 3 -32 6 -47 6 -16 1 -28 4 -28 8 0 10 44 16 48 6 2 -4 9 -4 15 0z m516
-23 c-9 -11 -39 -9 -39 3 0 3 6 3 14 0 21 -8 28 4 13 22 -11 14 -10 14 6 2 13
-10 14 -17 6 -27z m271 -10 c0 -1 -7 -5 -16 -8 -8 -3 -13 -2 -10 3 3 5 -1 14
-9 21 -11 9 -15 9 -15 1 0 -7 -5 -9 -12 -5 -9 6 -9 9 0 12 7 2 9 8 6 14 -4 6
7 0 25 -13 17 -12 31 -24 31 -25z m-300 32 c0 -2 -7 -7 -16 -10 -8 -3 -12 -2
-9 4 6 10 25 14 25 6z m-100 -35 c0 -5 -9 -7 -20 -4 -11 3 -20 7 -20 9 0 2 9
4 20 4 11 0 20 -4 20 -9z m77 -4 c6 2 15 -1 19 -8 4 -8 3 -9 -4 -5 -6 4 -21 2
-33 -5 -15 -8 -19 -8 -15 0 4 7 -1 11 -13 11 -12 0 -21 4 -21 9 0 6 12 6 28 2
15 -4 32 -6 39 -4z m363 -3 c0 4 15 -8 33 -26 25 -25 31 -37 25 -50 -11 -23
-29 -23 -56 2 -12 11 -25 20 -30 20 -5 0 -15 7 -22 15 -18 21 0 18 30 -5 14
-11 30 -20 37 -20 20 0 1 41 -23 51 -13 4 -24 14 -24 20 0 8 4 8 15 -1 8 -7
15 -10 15 -6z m-3970 -28 c0 -2 -7 -6 -15 -10 -8 -3 -15 -1 -15 4 0 6 7 10 15
10 8 0 15 -2 15 -4z m3495 -6 c-11 -5 -47 -8 -80 -8 l-60 1 60 7 c33 4 69 7
80 8 l20 1 -20 -9z m775 6 c0 -2 -7 -7 -16 -10 -8 -3 -12 -2 -9 4 6 10 25 14
25 6z m-203 -21 c0 -8 -4 -12 -9 -9 -5 3 -6 10 -3 15 9 13 12 11 12 -6z m1073
1 c-7 -7 -13 -7 -20 0 -6 6 -3 10 10 10 13 0 16 -4 10 -10z m-1832 -12 c28 -4
52 -10 52 -14 0 -4 -12 -6 -27 -4 -16 2 -52 6 -81 8 -29 2 -56 7 -59 10 -8 8
48 8 115 0z m825 -20 c-23 -17 -34 -18 -30 -1 3 17 18 26 34 20 11 -4 10 -8
-4 -19z m1094 20 c-3 -3 -12 -4 -19 -1 -8 3 -5 6 6 6 11 1 17 -2 13 -5z
m-4608 -31 c2 -1 -6 -1 -18 0 -11 1 -21 8 -21 15 0 12 3 12 18 1 9 -7 19 -14
21 -16z m3706 7 c-4 -6 -11 -8 -16 -5 -5 4 -9 1 -9 -5 0 -6 -5 -8 -11 -4 -8 4
-7 9 2 15 19 12 42 11 34 -1z m-912 -7 c-7 -2 -21 -2 -30 0 -10 3 -4 5 12 5
17 0 24 -2 18 -5z m742 -3 c3 -6 -1 -7 -9 -4 -18 7 -21 14 -7 14 6 0 13 -4 16
-10z m194 -27 c-13 -15 -12 -15 7 -5 16 9 21 8 21 -3 0 -8 -4 -12 -8 -10 -4 3
-10 -3 -13 -12 -6 -15 -8 -15 -16 -3 -6 8 -10 11 -10 5 0 -11 -20 15 -20 27 0
6 20 14 44 17 5 0 2 -6 -5 -16z m-49 -3 c0 -5 -10 -10 -22 -10 -19 0 -20 2 -8
10 19 13 30 13 30 0z m263 -7 c-7 -2 -19 -2 -25 0 -7 3 -2 5 12 5 14 0 19 -2
13 -5z m-263 -17 c0 -2 -7 -6 -15 -10 -8 -3 -15 -1 -15 4 0 6 7 10 15 10 8 0
15 -2 15 -4z"/>
<path d="M4710 5397 c0 -4 -4 -5 -10 -2 -5 3 -10 -1 -10 -10 0 -9 5 -13 10
-10 6 3 10 0 10 -9 0 -8 -6 -17 -12 -19 -14 -6 49 -66 69 -67 6 0 14 -8 16
-17 4 -14 5 -12 6 5 0 12 5 22 9 22 14 0 11 43 -6 72 -9 15 -22 28 -29 28 -7
0 -13 4 -13 9 0 6 -9 9 -20 8 -11 -1 -20 -5 -20 -10z"/>
<path d="M5976 5205 c-9 -24 10 -62 34 -68 14 -4 30 1 42 13 20 19 20 19 -5
44 -29 29 -62 34 -71 11z"/>
<path d="M6836 5092 c61 -56 74 -86 44 -102 -22 -12 -129 2 -139 19 -13 19
-48 21 -62 4 -7 -10 -9 -15 -5 -11 5 4 22 -4 38 -17 16 -14 35 -25 42 -25 7 0
50 -23 95 -50 46 -28 87 -48 92 -45 15 10 31 84 21 101 -5 9 -7 37 -5 62 l4
47 -69 33 c-101 47 -118 42 -56 -16z"/>
<path d="M5438 5112 c-21 -4 -24 -42 -6 -60 20 -20 66 -15 73 8 11 34 -24 62
-67 52z"/>
<path d="M6287 5088 c4 -30 16 -61 73 -182 13 -27 16 -45 10 -57 -20 -37 32
-40 74 -4 29 25 30 26 20 83 -6 31 -13 64 -15 71 -7 25 -133 121 -158 121 -4
0 -6 -15 -4 -32z"/>
<path d="M7256 5102 c-3 -5 0 -17 8 -27 10 -15 16 -16 35 -6 12 7 20 18 18 24
-4 15 -53 22 -61 9z"/>
<path d="M7182 5013 c-7 -2 -17 -13 -22 -23 -9 -17 -7 -19 25 -16 41 3 48 8
39 30 -6 16 -18 19 -42 9z"/>
<path d="M7690 4950 c0 -16 4 -30 9 -30 8 0 21 -29 25 -54 1 -10 15 -13 86
-22 25 -3 53 -10 63 -16 20 -10 77 -2 77 12 0 4 -30 23 -67 40 -37 18 -84 46
-105 63 -20 16 -41 26 -47 23 -5 -4 -12 -2 -16 4 -12 20 -25 10 -25 -20z"/>
<path d="M5305 4930 c-12 -19 25 -61 70 -80 24 -10 46 -27 49 -38 11 -32 48
-46 89 -33 42 14 65 37 50 52 -5 5 -37 15 -71 22 -36 7 -72 22 -88 36 -28 24
-73 51 -86 51 -4 0 -10 -5 -13 -10z"/>
<path d="M5630 4895 c0 -18 5 -25 20 -25 15 0 20 7 20 25 0 18 -5 25 -20 25
-15 0 -20 -7 -20 -25z"/>
<path d="M6640 4906 c0 -21 59 -40 66 -21 9 21 -1 30 -35 33 -21 2 -31 -2 -31
-12z"/>
<path d="M8030 4912 c0 -12 19 -26 26 -19 2 2 -2 10 -11 17 -9 8 -15 8 -15 2z"/>
<path d="M7355 4884 c11 -9 32 -20 48 -26 15 -5 27 -16 27 -24 0 -8 7 -14 15
-14 8 0 15 -4 15 -10 0 -5 5 -10 10 -10 6 0 10 9 10 20 0 12 -13 25 -37 37
-21 9 -44 23 -51 30 -7 7 -23 13 -35 13 -22 -1 -22 -1 -2 -16z"/>
<path d="M8188 4874 c-35 -18 -28 -39 24 -65 21 -11 43 -31 48 -44 8 -20 17
-25 44 -25 19 0 42 -3 51 -6 11 -5 8 2 -8 20 -14 15 -28 45 -32 67 -11 63 -66
87 -127 53z"/>
<path d="M7490 4819 c0 -5 9 -9 20 -9 11 0 20 2 20 4 0 2 -9 6 -20 9 -11 3
-20 1 -20 -4z"/>
<path d="M8500 4793 c1 -8 124 -107 158 -128 41 -24 70 -52 280 -272 112 -117
142 -136 192 -127 27 6 30 10 30 45 0 21 4 49 10 63 l9 25 48 -24 c45 -21 77
-29 112 -26 9 1 11 9 7 26 -7 27 5 33 23 11 7 -8 23 -17 37 -20 14 -4 22 -11
18 -17 -6 -11 20 -45 47 -59 14 -8 15 -4 6 36 -7 31 -20 53 -41 69 -17 13 -40
32 -51 42 -19 17 -19 18 16 28 20 5 44 16 53 24 34 28 18 34 -79 28 -75 -4
-98 -2 -109 9 -8 8 -21 14 -28 14 -8 0 -19 5 -25 11 -13 13 -75 7 -119 -11
-28 -12 -36 -10 -94 19 -35 17 -71 38 -81 47 -9 8 -24 17 -33 18 -8 1 -37 16
-64 34 -28 18 -54 32 -58 32 -7 0 -136 60 -216 101 -22 11 -48 12 -48 2z"/>
<path d="M7281 4781 c-11 -7 -8 -12 12 -26 21 -13 33 -15 54 -7 l28 10 -37 16
c-43 19 -39 18 -57 7z"/>
<path d="M5113 4773 c-21 -8 -15 -71 8 -94 25 -25 41 -21 54 15 15 45 -24 95
-62 79z"/>
<path d="M7815 4760 c3 -5 10 -10 16 -10 5 0 9 5 9 10 0 6 -7 10 -16 10 -8 0
-12 -4 -9 -10z"/>
<path d="M8060 4755 c0 -8 4 -15 10 -15 5 0 7 7 4 15 -4 8 -8 15 -10 15 -2 0
-4 -7 -4 -15z"/>
<path d="M6262 4668 c3 -51 4 -53 33 -53 27 0 30 3 33 37 3 32 -1 39 -27 52
-16 9 -33 16 -36 16 -3 0 -5 -24 -3 -52z"/>
<path d="M7270 4654 c0 -17 19 -38 38 -41 6 -2 12 2 12 8 0 8 4 8 13 0 10 -8
17 -7 27 2 10 10 12 8 6 -8 -4 -11 -4 -16 0 -12 4 4 13 2 19 -3 17 -15 44 -2
42 20 -1 11 -7 17 -19 15 -9 -2 -41 5 -70 16 -64 23 -68 23 -68 3z"/>
<path d="M7970 4631 c0 -4 19 -25 42 -45 37 -34 40 -39 24 -48 -17 -9 -17 -11
0 -29 13 -15 20 -16 31 -7 20 16 49 0 121 -67 34 -31 62 -54 62 -50 0 4 -11
16 -25 27 -14 11 -25 26 -25 35 0 22 -76 99 -140 142 -62 41 -90 55 -90 42z"/>
<path d="M8135 4600 c-14 -23 39 -60 88 -60 24 0 22 37 -3 50 -15 8 -20 8 -20
-1 0 -8 -4 -8 -12 -2 -21 16 -47 23 -53 13z"/>
<path d="M5758 4572 c-36 -33 -33 -62 6 -62 18 0 27 8 35 31 23 66 10 75 -41
31z"/>
<path d="M7440 4590 c-13 -8 -12 -10 3 -10 9 0 17 5 17 10 0 12 -1 12 -20 0z"/>
<path d="M8357 4573 c-18 -18 4 -35 61 -48 25 -5 32 -3 32 8 0 34 -70 64 -93
40z"/>
<path d="M7730 4556 c0 -2 8 -10 18 -17 15 -13 16 -12 3 4 -13 16 -21 21 -21
13z"/>
<path d="M8603 4533 c-7 -3 -13 -13 -13 -23 0 -15 10 -20 45 -26 25 -3 48 -10
51 -15 6 -11 44 -12 44 -1 0 8 -25 32 -48 46 -21 12 -66 23 -79 19z"/>
<path d="M6234 4481 c-48 -29 -134 -118 -134 -139 0 -26 20 -42 54 -42 23 0
42 13 86 58 94 97 90 182 -6 123z"/>
<path d="M7547 4494 c-11 -11 3 -24 18 -18 8 4 12 10 9 15 -6 11 -18 12 -27 3z"/>
<path d="M8500 4470 c0 -5 -6 -10 -14 -10 -21 0 -28 -53 -9 -67 24 -19 75 -26
104 -14 20 7 26 17 27 40 1 27 -3 31 -27 31 -15 0 -36 7 -47 15 -23 17 -34 19
-34 5z"/>
<path d="M5663 4408 c-29 -49 -37 -77 -34 -120 1 -14 10 -18 41 -18 30 0 43
-5 55 -23 22 -34 57 -47 123 -46 94 0 174 40 97 47 -40 4 -75 22 -75 39 0 13
-157 173 -170 173 -3 0 -19 -24 -37 -52z"/>
<path d="M8763 4405 c-8 -23 1 -27 31 -14 19 9 23 15 14 21 -20 12 -38 9 -45
-7z"/>
<path d="M9587 4373 c8 -21 50 -63 64 -63 20 0 7 30 -24 54 -40 31 -49 32 -40
9z"/>
<path d="M5507 4331 c3 -11 10 -18 16 -14 6 4 8 0 5 -9 -5 -11 0 -14 18 -10
20 3 22 7 13 23 -5 11 -14 19 -19 19 -4 0 -15 3 -23 6 -12 4 -14 0 -10 -15z"/>
<path d="M8350 4326 c7 -7 13 -7 20 0 6 6 3 10 -10 10 -13 0 -16 -4 -10 -10z"/>
<path d="M8888 4323 c-9 -2 -19 -11 -22 -19 -4 -11 0 -15 16 -12 11 2 22 11
24 21 1 9 2 16 1 16 -1 -1 -9 -3 -19 -6z"/>
<path d="M5466 4208 c-8 -13 -16 -30 -18 -39 -4 -18 58 -92 71 -85 13 8 12
117 -1 133 -16 19 -36 16 -52 -9z"/>
<path d="M9218 4216 c-25 -18 -22 -35 9 -68 24 -25 25 -28 7 -28 -31 0 34 -36
77 -43 34 -5 36 -4 32 21 -2 15 -5 38 -7 52 -2 14 -10 25 -19 25 -8 0 -26 12
-41 28 -28 31 -34 32 -58 13z"/>
<path d="M8320 3991 c-14 -27 -13 -31 8 -25 15 5 15 4 -1 -9 -18 -15 -18 -16
5 -28 20 -11 22 -11 10 3 -10 13 -10 17 0 20 11 4 10 8 0 21 -8 9 -11 21 -7
27 3 5 4 10 1 10 -3 0 -10 -9 -16 -19z"/>
<path d="M8010 3965 c0 -5 5 -17 10 -25 5 -8 10 -10 10 -5 0 6 -5 17 -10 25
-5 8 -10 11 -10 5z"/>
<path d="M8380 3943 c0 -16 -2 -16 -11 -3 -9 12 -10 12 -7 1 7 -24 28 -25 28
-2 0 12 -2 21 -5 21 -3 0 -5 -8 -5 -17z"/>
<path d="M5013 3909 c-23 -7 -33 -16 -33 -29 0 -11 -4 -20 -8 -20 -5 0 -15
-11 -22 -25 -8 -15 -20 -23 -27 -20 -8 2 -11 1 -8 -4 3 -5 -4 -12 -15 -16 -11
-3 -20 -11 -20 -16 0 -5 -6 -9 -14 -9 -23 0 -28 -32 -9 -52 15 -15 26 -16 71
-9 33 5 58 15 67 27 23 30 64 121 70 154 6 33 1 34 -52 19z"/>
<path d="M4816 3864 c-4 -15 -2 -32 3 -37 8 -8 11 0 11 26 0 44 -5 47 -14 11z"/>
<path d="M5427 3727 c-4 -12 1 -19 18 -23 13 -3 30 -4 37 -1 8 3 5 6 -6 6 -10
1 -24 8 -31 17 -11 16 -12 16 -18 1z"/>
<path d="M4767 3703 c-4 -3 -7 -11 -7 -17 0 -6 5 -5 12 2 6 6 9 14 7 17 -3 3
-9 2 -12 -2z"/>
<path d="M4847 3583 c-7 -34 4 -47 32 -38 38 12 23 65 -19 65 -4 0 -10 -12
-13 -27z"/>
<path d="M8810 3599 c0 -6 -7 -9 -15 -5 -10 3 -21 -6 -32 -27 -10 -18 -25 -32
-33 -32 -8 0 -16 -9 -18 -20 -6 -29 -33 -57 -46 -46 -7 6 -17 3 -26 -7 -13
-14 -12 -15 3 -9 28 11 30 -13 3 -34 -34 -27 -33 -34 9 -35 18 0 32 3 29 8 -3
4 7 8 23 8 19 0 24 3 15 9 -10 6 -9 10 7 14 12 3 19 1 15 -5 -3 -5 4 -19 16
-30 18 -17 24 -18 31 -7 4 8 13 14 19 14 6 0 15 6 19 14 5 8 18 12 30 8 14 -3
21 0 21 10 0 8 4 12 8 9 4 -2 14 0 22 6 12 8 12 9 -2 4 -10 -3 -20 -1 -23 4
-8 14 44 25 57 12 16 -16 38 -3 38 23 0 13 6 26 13 29 6 3 -6 3 -28 0 -37 -5
-39 -4 -20 10 14 10 15 14 5 13 -8 -2 -20 -6 -26 -9 -6 -4 -24 -3 -40 2 -16 4
-21 9 -11 9 18 1 21 9 9 28 -8 13 -36 -3 -38 -22 -2 -19 -28 -75 -36 -75 -4 0
-8 7 -8 17 0 14 -2 14 -22 -3 -13 -10 -17 -12 -10 -4 6 8 12 24 12 36 0 23 24
39 42 28 7 -5 7 -1 1 11 -6 10 -8 26 -6 36 3 11 3 19 -1 19 -3 0 -6 -5 -6 -11z
m80 -109 c0 -5 -4 -10 -10 -10 -5 0 -10 5 -10 10 0 6 5 10 10 10 6 0 10 -4 10
-10z m-56 -34 c-4 -11 0 -13 17 -9 14 4 20 2 16 -4 -12 -19 -54 -21 -54 -4 0
9 5 19 11 23 15 11 16 10 10 -6z m-54 -21 c-7 -9 -15 -13 -17 -11 -7 7 7 26
19 26 6 0 6 -6 -2 -15z"/>
<path d="M9795 3572 c-5 -4 -11 -17 -12 -28 -2 -17 2 -21 18 -17 15 4 17 9 8
19 -6 7 -8 18 -4 24 7 12 4 13 -10 2z"/>
<path d="M9820 3560 c0 -5 5 -10 11 -10 5 0 7 5 4 10 -3 6 -8 10 -11 10 -2 0
-4 -4 -4 -10z"/>
<path d="M8340 3439 c0 -5 5 -7 10 -4 6 3 10 8 10 11 0 2 -4 4 -10 4 -5 0 -10
-5 -10 -11z"/>
<path d="M8370 3440 c0 -5 5 -10 11 -10 5 0 7 5 4 10 -3 6 -8 10 -11 10 -2 0
-4 -4 -4 -10z"/>
<path d="M9560 3271 c0 -6 5 -11 11 -11 5 0 7 -5 3 -12 -4 -6 -3 -8 4 -4 5 3
12 1 14 -5 2 -7 9 -10 14 -8 6 2 -2 14 -18 27 -15 13 -28 19 -28 13z"/>
<path d="M8525 3180 c10 -11 20 -18 23 -15 7 6 -18 35 -31 35 -5 0 -2 -9 8
-20z"/>
<path d="M8796 3175 c-3 -8 -12 -15 -21 -15 -17 0 -95 -40 -80 -41 6 0 21 -2
34 -5 18 -3 31 4 52 28 16 17 29 35 29 40 0 13 -7 9 -14 -7z"/>
<path d="M9696 3173 c-3 -7 -1 -15 5 -19 16 -10 59 5 59 21 0 18 -57 16 -64
-2z"/>
<path d="M8560 3155 c-7 -9 -8 -15 -2 -15 5 0 12 7 16 15 3 8 4 15 2 15 -2 0
-9 -7 -16 -15z"/>
<path d="M8977 3151 c3 -9 13 -24 22 -35 9 -10 15 -20 14 -22 -11 -17 2 -13
24 7 14 13 23 18 19 12 -4 -7 -3 -13 2 -13 5 0 12 11 14 25 5 23 0 29 -19 23
-5 -2 -7 -6 -6 -9 1 -4 -7 -9 -17 -12 -11 -3 -18 -1 -14 4 3 5 -3 9 -13 9 -14
0 -15 2 -5 9 11 6 9 9 -6 13 -16 5 -19 2 -15 -11z"/>
<path d="M8946 3147 c4 -12 -2 -18 -21 -23 -19 -5 -23 -9 -14 -15 8 -4 16 -4
19 0 3 4 13 12 23 18 17 9 17 11 2 23 -13 11 -15 10 -9 -3z"/>
<path d="M8794 3095 c-11 -26 -10 -30 3 -33 8 -2 20 2 27 9 8 9 8 10 -4 4 -13
-8 -13 -6 -1 8 7 9 16 15 20 13 4 -3 7 3 7 13 0 29 -38 20 -52 -14z"/>
<path d="M8019 3103 c-13 -17 -13 -17 6 -3 11 8 22 16 24 17 2 2 0 3 -6 3 -6
0 -17 -8 -24 -17z"/>
<path d="M8035 3076 c-23 -24 -48 -46 -56 -49 -10 -4 -10 -6 3 -6 9 -1 26 13
38 29 12 17 26 27 32 24 7 -4 8 -2 4 4 -4 7 -1 12 7 12 8 0 17 7 21 15 9 26
-6 17 -49 -29z"/>
<path d="M8865 3099 c-4 -6 -5 -12 -2 -15 2 -3 7 2 10 11 7 17 1 20 -8 4z"/>
<path d="M9410 3090 c0 -5 -9 -10 -20 -10 -26 0 -26 -31 -1 -47 16 -10 20 -9
25 4 3 8 13 13 21 10 9 -4 12 -1 8 9 -3 8 -12 13 -20 10 -11 -4 -13 -1 -8 14
4 11 4 20 1 20 -3 0 -6 -4 -6 -10z"/>
<path d="M9618 3073 c-30 -37 -49 -75 -44 -89 3 -8 1 -14 -5 -14 -6 0 -3 -7 6
-16 13 -13 19 -14 28 -5 9 10 8 14 -5 22 -21 11 -24 31 -5 23 8 -3 13 4 14 16
1 11 8 34 17 50 17 34 15 37 -6 13z"/>
<path d="M8985 3051 c-3 -2 -5 -8 -5 -12 0 -8 38 0 44 10 5 7 -32 9 -39 2z"/>
<path d="M7855 3026 c-20 -21 -26 -36 -16 -36 6 0 15 9 21 21 13 24 10 32 -5
15z"/>
<path d="M4378 3023 c7 -3 16 -2 19 1 4 3 -2 6 -13 5 -11 0 -14 -3 -6 -6z"/>
<path d="M9460 3004 c0 -8 5 -12 10 -9 6 4 8 11 5 16 -9 14 -15 11 -15 -7z"/>
<path d="M9500 2982 c0 -5 10 -39 21 -76 14 -43 24 -63 29 -55 5 6 6 18 3 26
-3 7 5 17 18 22 13 5 18 10 12 10 -7 1 -22 10 -32 20 -14 14 -16 22 -7 31 8
10 8 11 -3 5 -11 -6 -13 -4 -8 8 5 12 1 17 -13 17 -11 0 -20 -4 -20 -8z"/>
<path d="M9625 2950 c-11 -5 -15 -9 -10 -9 6 -1 3 -6 -5 -12 -12 -9 -12 -10 3
-5 10 3 25 6 33 6 8 0 14 7 14 15 0 17 -6 18 -35 5z"/>
<path d="M9618 2912 c-16 -3 -16 -5 -3 -18 13 -14 17 -14 30 -1 16 17 3 26
-27 19z"/>
<path d="M3256 2872 c-3 -5 1 -9 9 -9 8 0 12 4 9 9 -3 4 -7 8 -9 8 -2 0 -6 -4
-9 -8z"/>
<path d="M2501 2794 c0 -11 3 -14 6 -6 3 7 2 16 -1 19 -3 4 -6 -2 -5 -13z"/>
<path d="M2425 2781 c-3 -5 -1 -12 5 -16 5 -3 10 1 10 9 0 18 -6 21 -15 7z"/>
<path d="M2409 2738 c-8 -7 -12 -12 -10 -11 2 2 11 -3 19 -10 11 -8 14 -9 9 0
-4 7 0 16 10 22 15 9 15 10 2 11 -8 0 -22 -6 -30 -12z"/>
<path d="M2980 2719 c0 -5 5 -7 10 -4 6 3 10 8 10 11 0 2 -4 4 -10 4 -5 0 -10
-5 -10 -11z"/>
<path d="M4600 2680 c-12 -7 -10 -9 7 -7 12 0 19 5 17 9 -6 10 -6 10 -24 -2z"/>
<path d="M2771 2646 c-10 -12 -8 -17 8 -26 14 -7 21 -7 21 0 0 5 -4 10 -10 10
-5 0 -10 4 -10 10 0 5 7 6 17 3 11 -4 14 -3 9 5 -10 16 -21 15 -35 -2z"/>
<path d="M4830 2535 c0 -8 4 -15 10 -15 5 0 7 7 4 15 -4 8 -8 15 -10 15 -2 0
-4 -7 -4 -15z"/>
<path d="M4258 2483 c7 -3 16 -2 19 1 4 3 -2 6 -13 5 -11 0 -14 -3 -6 -6z"/>
<path d="M5077 2473 c-10 -9 -9 -23 1 -23 5 0 9 7 9 15 0 17 -1 18 -10 8z"/>
<path d="M2381 2411 c-8 -5 -9 -11 -3 -15 5 -3 12 1 16 9 6 17 6 18 -13 6z"/>
<path d="M2356 2377 c3 -10 9 -15 12 -12 3 3 0 11 -7 18 -10 9 -11 8 -5 -6z"/>
<path d="M6167 2383 c-13 -12 -7 -54 9 -60 23 -8 38 12 30 41 -6 25 -25 34
-39 19z"/>
<path d="M6020 2355 c0 -8 5 -15 10 -15 6 0 10 7 10 15 0 8 -4 15 -10 15 -5 0
-10 -7 -10 -15z"/>
<path d="M6506 2314 c-6 -15 -4 -15 11 -3 10 7 20 15 22 16 2 2 -3 3 -11 3 -9
0 -19 -7 -22 -16z"/>
<path d="M7535 2250 c4 -6 10 -8 15 -5 4 3 10 -1 13 -7 2 -7 8 -10 12 -6 11
11 -4 28 -26 28 -11 0 -17 -5 -14 -10z"/>
<path d="M7195 2240 c-3 -6 1 -7 9 -4 18 7 21 14 7 14 -6 0 -13 -4 -16 -10z"/>
<path d="M7590 2232 c0 -5 7 -9 15 -9 8 0 12 4 9 9 -3 4 -9 8 -15 8 -5 0 -9
-4 -9 -8z"/>
<path d="M7550 2210 c6 -11 16 -20 22 -20 6 0 3 9 -7 20 -10 11 -20 20 -22 20
-2 0 1 -9 7 -20z"/>
<path d="M7447 2199 c7 -7 15 -10 18 -7 3 3 -2 9 -12 12 -14 6 -15 5 -6 -5z"/>
<path d="M7915 2170 c3 -6 -2 -10 -12 -11 -10 0 -13 -3 -6 -5 7 -3 20 -1 29 4
15 8 15 9 0 15 -10 4 -15 3 -11 -3z"/>
<path d="M7528 2163 c6 -2 18 -2 25 0 6 3 1 5 -13 5 -14 0 -19 -2 -12 -5z"/>
<path d="M8105 2120 c18 -20 45 -27 45 -12 0 8 -43 32 -57 32 -3 0 2 -9 12
-20z"/>
<path d="M8160 2117 c0 -2 12 -13 27 -23 27 -17 103 -26 103 -12 0 7 -14 11
-70 21 -14 2 -33 8 -42 12 -10 4 -18 5 -18 2z"/>
<path d="M8025 2079 c-7 -10 21 -38 38 -39 12 0 8 20 -7 36 -17 17 -23 17 -31
3z"/>
<path d="M8139 2083 c-12 -3 -15 -11 -11 -25 4 -16 2 -19 -9 -14 -8 4 -5 0 5
-8 23 -19 46 -22 28 -4 -18 18 -15 25 15 33 21 5 24 8 12 16 -7 5 -16 8 -19 8
-3 -1 -12 -3 -21 -6z"/>
<path d="M8260 2040 c0 -12 27 -12 55 0 16 7 13 9 -17 9 -21 1 -38 -3 -38 -9z"/>
<path d="M8340 2046 c0 -2 7 -7 16 -10 8 -3 12 -2 9 4 -6 10 -25 14 -25 6z"/>
<path d="M9135 2011 c-7 -13 30 -24 55 -16 28 9 15 25 -20 25 -16 0 -31 -4
-35 -9z"/>
<path d="M8440 1992 c0 -4 25 -9 55 -10 30 0 55 3 55 7 0 4 -25 9 -55 10 -30
1 -55 -2 -55 -7z"/>
<path d="M8380 1950 c13 -8 12 -10 -5 -10 -17 0 -17 -2 -5 -10 13 -9 13 -10 0
-10 -13 0 -13 -2 -1 -9 8 -5 11 -16 8 -25 -8 -21 0 -20 30 4 l25 20 -23 10
c-23 10 -23 10 4 5 15 -3 27 -1 27 4 0 12 -8 17 -45 25 -22 5 -26 4 -15 -4z"/>
<path d="M7037 4184 c-12 -13 7 -44 27 -43 16 1 17 2 4 6 -9 2 -15 10 -12 18
6 13 -9 29 -19 19z"/>
<path d="M6988 4063 c7 -3 16 -2 19 1 4 3 -2 6 -13 5 -11 0 -14 -3 -6 -6z"/>
<path d="M7465 4020 c3 -5 10 -10 16 -10 5 0 9 5 9 10 0 6 -7 10 -16 10 -8 0
-12 -4 -9 -10z"/>
<path d="M6906 4012 c-2 -4 -1 -14 5 -22 7 -12 9 -10 9 8 0 23 -5 28 -14 14z"/>
</g>
</svg>
